<?xml version="1.0" encoding="UTF-8" standalone="no"?>
<!DOCTYPE svg PUBLIC "-//W3C//DTD SVG 1.1//EN" "http://www.w3.org/Graphics/SVG/1.1/DTD/svg11.dtd">
<svg xmlns="http://www.w3.org/2000/svg">
<metadata/>
<defs>
<font id="bree_seriflight" horiz-adv-x="1095">
<font-face units-per-em="2048" ascent="1536" descent="-512"/>
<missing-glyph horiz-adv-x="450"/>
<glyph unicode="ﬁ" horiz-adv-x="1161" d="M61 891v127h140v119q0 55 7.5 99.5t30 92t61 79.5t105 52.5t156.5 20.5q159 0 348 -82l-45 -115q-169 72 -295 72q-115 0 -162 -51t-47 -164v-123h611v-889l108 -6v-123h-374v115l40 4q33 5 49.5 19.5t16.5 49.5v703h-451v-762l170 -6v-123h-436v115l41 4q33 5 49.5 19.5 t16.5 49.5v703h-140z"/>
<glyph unicode="ﬂ" horiz-adv-x="1148" d="M61 891v127h140v96q0 56 7 102.5t30 97.5t60.5 86t104 58t156.5 23q75 0 154 -21.5t125 -50.5l75 51h56v-1331l110 -6v-123h-374v115l40 4q33 5 49.5 19.5t16.5 49.5v703h-451v-762l170 -6v-123h-436v115l41 4q31 5 48.5 19.5t17.5 49.5v703h-140zM360 1018h451v274 q-119 64 -246 64q-113 0 -159 -58t-46 -180v-100z"/>
<glyph unicode="ﬃ" horiz-adv-x="1771" d="M61 891v127h140v96q0 75 17 136t53 109t98.5 74.5t148.5 26.5q62 0 130.5 -17.5t111.5 -45.5l-45 -113q-77 47 -187 47q-90 0 -129 -54t-39 -157v-102h451v119q0 55 7.5 99.5t30 92t61 79.5t105 52.5t156.5 20.5q85 0 181 -25.5t168 -56.5l-45 -115q-169 72 -295 72 q-115 0 -162 -51t-47 -164v-123h610v-889l109 -6v-123h-375v115l41 4q33 5 49 19.5t16 49.5v703h-450v-762l170 -6v-123h-436v115l40 4q33 5 49.5 19.5t16.5 49.5v703h-451v-762l170 -6v-123h-436v115l58 6q30 5 39.5 17.5t9.5 49.5v703h-140z"/>
<glyph unicode="ﬄ" horiz-adv-x="1759" d="M61 891v127h140v96q0 75 17 136t53 109t98.5 74.5t148.5 26.5q62 0 130.5 -17.5t111.5 -45.5l-45 -113q-77 47 -187 47q-90 0 -129 -54t-39 -157v-102h451v96q0 56 7 102.5t30 97.5t60.5 86t104 58t156.5 23q75 0 154 -21.5t125 -50.5l76 51h55v-1331l111 -6v-123h-375 v115l41 4q33 5 49 19.5t16 49.5v703h-450v-762l170 -6v-123h-436v115l40 4q31 5 48.5 19.5t17.5 49.5v703h-451v-762l170 -6v-123h-436v115l58 6q30 5 39.5 17.5t9.5 49.5v703h-140zM971 1018h450v274q-119 64 -245 64q-113 0 -159 -58t-46 -180v-100z"/>
<glyph horiz-adv-x="0"/>
<glyph horiz-adv-x="0"/>
<glyph horiz-adv-x="682"/>
<glyph unicode="" horiz-adv-x="450"/>
<glyph unicode=" " horiz-adv-x="450"/>
<glyph unicode="	" horiz-adv-x="450"/>
<glyph unicode=" " horiz-adv-x="450"/>
<glyph unicode="!" horiz-adv-x="534" d="M158 82q0 48 31.5 80.5t78.5 32.5q53 0 86 -31.5t33 -79.5q0 -49 -31.5 -83t-81.5 -34q-53 0 -84.5 32.5t-31.5 82.5zM190 1049v264q0 73 82 73q50 0 68 -19t18 -56v-262l-34 -711h-101z"/>
<glyph unicode="&quot;" horiz-adv-x="716" d="M135 1362h156l-17 -459h-118zM424 1362h158l-19 -459h-119z"/>
<glyph unicode="#" horiz-adv-x="1103" d="M27 330v114h239l31 347h-231v110h241l29 338h127l-31 -338h252l31 338h127l-31 -338h223v-110h-233l-31 -347h225v-114h-233l-29 -330h-127l29 330h-252l-29 -330h-127l29 330h-229zM391 444h254l31 347h-252z"/>
<glyph unicode="$" horiz-adv-x="1069" d="M121 995q0 142 95.5 235t262.5 113v187h125v-180q213 -13 326 -64v-291l-148 -14v152q0 30 -7.5 41.5t-35.5 21.5q-42 12 -135 16v-450q68 -20 112 -36t99.5 -47t88 -66.5t55 -91.5t22.5 -126q0 -161 -95 -255.5t-282 -114.5v-246h-125v239q-225 0 -356 58v297l145 14 v-147q0 -30 7.5 -42t35.5 -22q35 -16 168 -20v487q-63 16 -109.5 33.5t-96 46.5t-81 64.5t-51.5 88.5t-20 119zM291 1010q0 -81 46.5 -127t141.5 -80v403q-85 -13 -136.5 -60.5t-51.5 -135.5zM604 162q205 32 205 227q0 85 -53 134.5t-152 84.5v-446z"/>
<glyph unicode="%" horiz-adv-x="1609" d="M68 969q0 177 86 277t235 100q144 0 224.5 -92t80.5 -273q0 -182 -81.5 -282.5t-235.5 -100.5q-149 0 -229 95.5t-80 275.5zM201 967q0 -133 50 -199t130 -66t130 67t50 206q0 134 -48.5 200t-127.5 66q-87 0 -135.5 -69t-48.5 -205zM444 49l598 1284l123 -53l-602 -1286 zM920 348q0 176 86 275.5t235 99.5q144 0 224.5 -91t80.5 -272q0 -182 -81.5 -282.5t-235.5 -100.5q-149 0 -229 95.5t-80 275.5zM1053 344q0 -132 50 -197t130 -65t130 65.5t50 204.5q0 136 -48.5 202.5t-127.5 66.5q-87 0 -135.5 -69.5t-48.5 -207.5z"/>
<glyph unicode="&amp;" horiz-adv-x="1372" d="M102 387q0 272 256 422q-65 100 -65 223q0 156 109 255t307 99q208 0 352 -83v-254l-148 -23v127q0 32 -8 47t-35 25q-77 22 -155 22q-262 0 -262 -213q0 -82 51 -183t136 -200.5t162.5 -176t162.5 -150.5q41 94 41 243q0 44 -37 47l-66 7v124h348v-131l-102 -4 q0 -239 -68 -372q80 -66 209 -156l-90 -117q-54 38 -209 158q-152 -152 -401 -152q-125 0 -221.5 34t-153 93t-85 132t-28.5 157zM258 403q0 -133 89 -216t251 -83q90 0 163 29t116 78q-116 84 -250.5 227t-204.5 254q-36 -26 -58.5 -46t-50 -55t-41.5 -82t-14 -106z"/>
<glyph unicode="'" horiz-adv-x="428" d="M135 1362h156l-17 -459h-118z"/>
<glyph unicode="(" horiz-adv-x="630" d="M176 565q0 431 254 897l131 -65q-113 -222 -169 -422t-56 -410q0 -205 55.5 -405.5t165.5 -425.5l-131 -60q-250 458 -250 891z"/>
<glyph unicode=")" horiz-adv-x="630" d="M59 -260q114 223 170 422.5t56 408.5q0 205 -56 405.5t-166 426.5l132 59q249 -456 249 -891q0 -431 -254 -897z"/>
<glyph unicode="*" horiz-adv-x="821" d="M51 1194l4 55q3 43 25 63.5t53 17t66 -26.5l190 -111l-67 326l49 14q64 18 90.5 -16.5t15.5 -98.5l-39 -225l277 164l28 -39q28 -38 25 -68t-28 -49t-64 -24l-223 -29l262 -205l-31 -41q-43 -54 -83 -47t-71 61l-118 205l-133 -270l-58 22q-63 29 -52 78t93 111l111 86z "/>
<glyph unicode="+" d="M125 586v137h350v354h143v-354h351v-137h-351v-355h-143v355h-350z"/>
<glyph unicode="," horiz-adv-x="444" d="M92 29l31 149q53 12 92 12q75 1 115 -30.5t45 -87.5q3 -52 -21 -105l-139 -284l-98 32l76 262q7 31 -2 41.5t-37 10.5h-62z"/>
<glyph unicode="-" horiz-adv-x="649" d="M51 530v136h537v-136h-537z"/>
<glyph unicode="." horiz-adv-x="425" d="M94 92q0 54 33 86.5t84 32.5q56 0 88.5 -31.5t32.5 -85.5q0 -55 -31 -88t-84 -33q-59 0 -91 32t-32 87z"/>
<glyph unicode="/" horiz-adv-x="819" d="M16 -154l652 1678l143 -51l-655 -1680z"/>
<glyph unicode="0" d="M92 662q0 343 122.5 513.5t344.5 170.5q105 0 185 -36.5t139 -115t90 -210t31 -312.5q0 -356 -115 -524t-346 -168q-227 0 -339 163.5t-112 518.5zM256 641q0 -150 20.5 -254.5t60 -164t91 -85.5t121.5 -26q54 0 96.5 15.5t80.5 54t63 101t39 160t14 226.5q0 126 -14 221 t-38 156t-61.5 98.5t-80 53t-97.5 15.5q-71 0 -123.5 -28.5t-92 -93t-59.5 -177t-20 -272.5z"/>
<glyph unicode="1" horiz-adv-x="843" d="M41 1081l387 238h147v-1190l248 -6v-123h-663v115l198 8q23 1 34 4.5t18.5 17t7.5 39.5v963l-318 -168z"/>
<glyph unicode="2" horiz-adv-x="1001" d="M92 0v117l463 545q96 109 130 173t34 156q0 109 -73.5 162t-196.5 53q-98 0 -166 -22q-28 -10 -35.5 -23.5t-7.5 -44.5v-155l-148 14v276q155 95 377 95q202 0 309 -94t107 -248q0 -104 -43.5 -194.5t-128.5 -191.5l-420 -485h668v-133h-869z"/>
<glyph unicode="3" horiz-adv-x="1001" d="M61 74l54 129q157 -90 327 -90q128 0 200.5 69t72.5 187q0 128 -79 179.5t-257 51.5h-78l14 133h217q64 33 112 108t48 173q0 194 -235 194q-121 0 -174 -24q-28 -10 -35.5 -23.5t-7.5 -44.5v-155l-148 14v276q168 95 387 95q100 0 175 -26t118 -71.5t63.5 -100.5 t20.5 -118q0 -231 -172 -350q195 -74 195 -311q0 -77 -26.5 -145.5t-78 -124.5t-138 -89t-196.5 -33t-219.5 30t-159.5 67z"/>
<glyph unicode="4" horiz-adv-x="1042" d="M51 342v127l416 874l129 -65l-385 -807h428v145l59 289h97v-434h196v-129h-196v-213l127 -6v-123h-422v121l73 2q23 1 34 4.5t18.5 17t7.5 39.5v158h-582z"/>
<glyph unicode="5" horiz-adv-x="948" d="M31 84l55 125q172 -98 336 -98q145 0 214 71t69 183q0 297 -572 297l84 657h447q30 0 38.5 11.5t8.5 43.5v88l147 -14v-262h-510l-55 -402q88 -3 167 -17.5t155 -45.5t130.5 -76.5t87.5 -115.5t33 -158q0 -73 -23.5 -140t-73 -125.5t-138.5 -93.5t-207 -35 q-113 0 -229.5 35t-163.5 72z"/>
<glyph unicode="6" horiz-adv-x="1067" d="M117 561q0 690 631 807l30 -125q-113 -18 -203.5 -65.5t-150 -117t-94 -154t-43.5 -181.5q158 104 325 104q166 0 262.5 -107.5t96.5 -287.5q0 -93 -27.5 -175t-79.5 -146t-135.5 -101t-187.5 -37q-93 0 -166 31t-120.5 84t-79 128.5t-45 159.5t-13.5 183zM276 588 q-4 -99 9 -183.5t43 -153t85.5 -108t131.5 -39.5q122 0 194 87.5t72 238.5q0 125 -61.5 197.5t-176.5 72.5q-73 0 -164.5 -35.5t-132.5 -76.5z"/>
<glyph unicode="7" horiz-adv-x="925" d="M51 1057v262h834v-123l-594 -1196h-176l594 1186h-463q-29 0 -38 -11.5t-9 -44.5v-88z"/>
<glyph unicode="8" horiz-adv-x="993" d="M82 315q0 60 18.5 116t46.5 96.5t66.5 77t71.5 59t69 41.5q-34 19 -62.5 38t-60.5 48.5t-53.5 61t-36 75.5t-14.5 92q0 137 106 231.5t269 94.5q94 0 166 -25.5t113.5 -68.5t62 -94t20.5 -107q0 -182 -215 -344q262 -136 262 -353q0 -59 -14.5 -112.5t-46.5 -102 t-80 -84.5t-119 -57t-159 -21q-110 0 -192.5 30t-128.5 80.5t-67.5 107.5t-21.5 120zM240 328q0 -93 67 -158.5t191 -65.5q119 0 183 65t64 177q0 180 -260 291q-105 -48 -175 -125.5t-70 -183.5zM285 1026q0 -153 233 -262q79 48 136 120t57 154q0 81 -57 133t-158 52 q-91 0 -151 -58.5t-60 -138.5z"/>
<glyph unicode="9" horiz-adv-x="1067" d="M96 887q0 125 47 227.5t146.5 167t236.5 64.5q93 0 166 -31t120.5 -84t79 -128.5t45 -159.5t13.5 -183q0 -156 -32.5 -280t-104.5 -226.5t-196 -171t-298 -98.5l-30 122q232 44 357 167.5t142 318.5q-141 -100 -323 -100q-176 0 -272.5 106t-96.5 289zM256 891 q0 -126 59 -197t174 -71q90 0 170.5 32t131.5 76q4 99 -9 184.5t-43.5 154t-86 108t-130.5 39.5q-122 0 -194 -88.5t-72 -237.5z"/>
<glyph unicode=":" horiz-adv-x="425" d="M94 92q0 54 33 86.5t84 32.5q56 0 88.5 -31.5t32.5 -85.5q0 -55 -31 -88t-84 -33q-59 0 -91 32t-32 87zM94 881q0 53 32.5 85.5t84.5 32.5q56 0 88.5 -31t32.5 -85q0 -55 -31 -88t-84 -33q-59 0 -91 32t-32 87z"/>
<glyph unicode=";" horiz-adv-x="444" d="M90 29l31 149q52 12 92 12q75 1 115 -30.5t45 -87.5q3 -52 -21 -105l-139 -284l-98 32l75 262q7 31 -1.5 41.5t-36.5 10.5h-62zM123 881q0 53 32.5 85.5t84.5 32.5q56 0 88 -31t32 -85q0 -55 -30.5 -88t-83.5 -33q-59 0 -91 32t-32 87z"/>
<glyph unicode="&lt;" d="M156 594v125l731 350l55 -125l-614 -285l618 -288l-59 -125z"/>
<glyph unicode="=" d="M133 393v133h830v-133h-830zM133 748v133h830v-133h-830z"/>
<glyph unicode="&gt;" d="M156 944l59 125l731 -348v-125l-731 -350l-55 125l614 284z"/>
<glyph unicode="?" horiz-adv-x="755" d="M82 1071v240q146 75 311 75q86 0 152 -24.5t104 -66.5t57 -90.5t19 -102.5q0 -73 -15.5 -129t-50.5 -100.5t-66 -71.5t-87 -68q-72 -51 -99.5 -91.5t-27.5 -109.5v-180h-135l-13 168q-4 57 3.5 99t30.5 77.5t51.5 63t78.5 65.5q80 60 103 84q67 71 67 178q0 83 -50 123.5 t-128 40.5t-115 -12q-27 -11 -35 -22.5t-8 -40.5v-119zM205 84q0 48 31.5 80.5t78.5 32.5q53 0 86 -31.5t33 -79.5q0 -49 -31 -83t-81 -34q-53 0 -85 32.5t-32 82.5z"/>
<glyph unicode="@" horiz-adv-x="1955" d="M147 430q0 217 68 389.5t189 283t285 168.5t360 58q352 0 555.5 -195t203.5 -542q0 -150 -38 -264t-108.5 -184t-163.5 -106t-208 -38h-76l-12 119l-6 2q-85 -131 -266 -131q-95 0 -164 34t-107.5 95t-56.5 135t-18 164q0 236 115.5 365.5t328.5 129.5q139 0 295 -53 v-678l6 -71q61 5 110 21t94.5 50.5t75.5 87.5t48 135.5t18 190.5q0 134 -38.5 244.5t-116 194.5t-203 130.5t-289.5 46.5q-176 0 -318 -59t-233.5 -163t-140.5 -245t-49 -307q0 -325 178.5 -521t495.5 -196q197 0 354 74l39 -112q-168 -76 -400 -76q-167 0 -303 43.5 t-228.5 119t-155.5 180.5t-91.5 225t-28.5 255zM725 412q0 -59 10 -109.5t33.5 -98.5t71 -76t114.5 -28q111 0 169.5 63.5t58.5 153.5v451q-64 33 -172 33q-54 0 -88 -10q-100 -28 -148.5 -128.5t-48.5 -250.5z"/>
<glyph unicode="A" horiz-adv-x="1331" d="M31 0v121l55 8q27 5 38 13t21 38l369 1041l-106 12v129h346l440 -1227l106 -6v-129h-407v121l70 8q29 5 41 19.5t0 48.5l-80 223h-537l-98 -285l106 -6v-129h-364zM426 551h459l-230 666h-2z"/>
<glyph unicode="B" horiz-adv-x="1224" d="M113 0v121l61 6q30 5 40.5 16t10.5 41v1043l-106 8v127h518q68 0 127 -9t115.5 -31.5t96 -58.5t63.5 -93.5t24 -131.5q0 -218 -219 -303q134 -24 211.5 -109t77.5 -227q0 -197 -126.5 -298t-371.5 -101h-522zM387 131h246q328 0 328 266q0 127 -82.5 192.5t-235.5 65.5 h-256v-524zM387 786h199q309 0 309 242q0 62 -21.5 104t-63 63.5t-91.5 30.5t-119 9h-213v-449z"/>
<glyph unicode="C" horiz-adv-x="1232" d="M111 680q0 154 35 276.5t93 201.5t139.5 131.5t169.5 74.5t187 22q213 0 375 -75v-299l-147 -15v162q0 31 -7.5 44.5t-35.5 23.5q-63 18 -168 18q-229 0 -350 -143.5t-121 -392.5q0 -290 114.5 -439t366.5 -149q119 0 180 20q28 10 34.5 22t6.5 44v160l147 -15v-295 q-69 -38 -172 -60t-213 -22q-306 0 -470 176.5t-164 528.5z"/>
<glyph unicode="D" horiz-adv-x="1372" d="M113 0v121l59 8q31 5 42 16t11 45v1037l-106 8v127h522q289 0 455 -162t166 -469q0 -158 -33 -283.5t-89 -208t-135 -137.5t-166 -78.5t-186 -23.5h-540zM387 131h246q224 0 342.5 143t118.5 418q0 122 -23.5 216t-64.5 154.5t-100.5 99t-127 54t-149.5 15.5h-242v-1100z "/>
<glyph unicode="E" horiz-adv-x="1093" d="M113 0v121l57 8q30 5 42.5 16t12.5 43v1039l-106 8v127h868v-283l-147 -14v104q0 28 -11.5 41t-44.5 13h-397v-459h516v-139h-516v-486h420q30 0 38.5 12t8.5 44v112l147 -14v-293h-888z"/>
<glyph unicode="F" horiz-adv-x="1103" d="M113 0v121l59 8q33 5 43 15t10 44v1039l-104 6v129h921v-283l-147 -14v98q0 32 -10 46t-43 14h-455v-459h543v-139h-543v-490l148 -6v-129h-422z"/>
<glyph unicode="G" horiz-adv-x="1337" d="M111 678q0 154 33.5 275.5t92 201.5t141.5 133t176.5 75.5t203.5 22.5q115 0 218.5 -21.5t170.5 -57.5v-295l-148 -15v160q0 31 -7.5 44.5t-35.5 23.5q-63 18 -190 18q-243 0 -364 -143t-121 -408q0 -577 432 -577q75 0 152.5 18.5t115.5 44.5v400l-141 6v129h415v-121 l-57 -6q-31 -5 -43 -17t-12 -43v-434q-85 -56 -198.5 -86.5t-233.5 -30.5q-301 0 -450.5 173.5t-149.5 529.5z"/>
<glyph unicode="H" horiz-adv-x="1484" d="M113 0v121l57 8q32 5 43.5 16.5t11.5 44.5v1037l-106 6v129h381v-121l-56 -6q-32 -5 -44.5 -16.5t-12.5 -44.5v-394h711v445l-107 8v129h381v-121l-57 -6q-31 -5 -43 -18t-12 -48v-1034l106 -6v-129h-381v121l59 8q31 5 42.5 16t11.5 45v449h-711v-504l107 -6v-129h-381z "/>
<glyph unicode="I" horiz-adv-x="612" d="M113 0v121l55 6q32 5 44.5 17.5t12.5 48.5v1034l-106 6v129h381v-121l-60 -6q-30 -5 -41.5 -17.5t-11.5 -46.5v-1036l107 -6v-129h-381z"/>
<glyph unicode="J" horiz-adv-x="954" d="M82 51v293l147 14v-163q0 -29 7 -40t32 -22q59 -18 129 -18q106 0 148.5 54t42.5 159v899l-107 6v129h381v-121l-57 -6q-31 -5 -43 -15.5t-12 -39.5v-666q0 -165 -5 -227q-6 -154 -85.5 -233t-253.5 -79q-106 0 -193.5 23.5t-130.5 52.5z"/>
<glyph unicode="K" horiz-adv-x="1265" d="M113 0v121l57 8q32 5 42.5 15.5t10.5 43.5v1039l-108 6v129h381v-121l-62 -6q-31 -5 -41 -16t-10 -45v-568l520 617v4l-110 6v129h381v-121l-52 -6q-28 -4 -45.5 -17t-42.5 -44l-313 -379l397 -660l107 -6v-129h-439v123l91 8q38 5 38 31q0 14 -10 33l-293 481l-229 -273 v-268l111 -6v-129h-381z"/>
<glyph unicode="L" horiz-adv-x="1079" d="M113 0v121l59 8q31 5 42 16t11 45v1037l-108 6v129h381v-121l-54 -6q-33 -5 -46 -20.5t-13 -51.5v-1024h410q36 0 45.5 12t9.5 44v133l147 -15v-313h-884z"/>
<glyph unicode="M" horiz-adv-x="1744" d="M92 0v121l55 6q31 5 44 19t14 51l61 1030l-106 6v129h315l395 -1000h2l408 1000h319v-121l-51 -6q-34 -5 -48 -19.5t-13 -48.5l57 -1032l109 -6v-129h-381v121l65 6q34 4 42.5 19t6.5 59l-47 930h-2l-401 -969h-137l-389 969h-2l-52 -1000l109 -6v-129h-373z"/>
<glyph unicode="N" horiz-adv-x="1462" d="M113 0v121l61 8q30 5 40.5 15t10.5 40v1043l-106 6v129h299l678 -1110h2v975l-109 6v129h381v-121l-61 -8q-31 -5 -41.5 -16.5t-10.5 -45.5v-1171h-178l-692 1130h-2v-995l109 -6v-129h-381z"/>
<glyph unicode="O" horiz-adv-x="1353" d="M109 678q0 152 34 275t90.5 202t133 132.5t157.5 76t168 22.5q92 0 171.5 -23t150.5 -76t121.5 -133t80 -201.5t29.5 -274.5q0 -345 -151.5 -524t-421.5 -179q-267 0 -415 179t-148 524zM279 684q0 -565 409 -565q86 0 154 31t111 83t71 124.5t39.5 149.5t11.5 165 q0 64 -7.5 126t-24 128t-46.5 121t-71.5 99.5t-103 69.5t-136.5 25q-108 0 -189.5 -47t-127.5 -128t-68 -176.5t-22 -205.5z"/>
<glyph unicode="P" horiz-adv-x="1218" d="M113 0v121l65 8q29 5 38 16t9 43v1039l-106 6v129h549q219 0 338.5 -103.5t119.5 -302.5q0 -222 -137 -338t-368 -116h-234v-365l188 -8v-129h-462zM387 633h201q368 0 368 299q0 79 -20 134.5t-52 87t-86.5 48.5t-106.5 22t-130 5h-174v-596z"/>
<glyph unicode="Q" horiz-adv-x="1353" d="M109 678q0 152 34 275t90.5 202t133 132.5t157.5 76t168 22.5q92 0 171.5 -23t150.5 -76t121.5 -133t80 -201.5t29.5 -274.5q0 -294 -110 -467.5t-312 -218.5v-6q73 -4 140 -25t117.5 -46t103 -47.5t118.5 -33.5q37 -6 77 -6q32 0 67 4l-19 -147q-25 -2 -50 -2 q-61 0 -121 12q-85 17 -155.5 46.5t-138 59.5t-143 52t-145.5 22q-68 0 -129 -12l22 121q-220 31 -339 206t-119 488zM279 684q0 -565 409 -565q86 0 154 31t111 83t71 124.5t39.5 149.5t11.5 165q0 64 -7.5 126t-24 128t-46.5 121t-71.5 99.5t-103 69.5t-136.5 25 q-108 0 -189.5 -47t-127.5 -128t-68 -176.5t-22 -205.5z"/>
<glyph unicode="R" horiz-adv-x="1296" d="M113 0v121l63 8q30 5 39.5 16t9.5 45v1037l-106 6v129h538q225 0 344 -86.5t119 -280.5q0 -85 -22.5 -150t-64.5 -108t-88 -69.5t-107 -46.5q56 -19 83.5 -49t57.5 -91l174 -346l92 -6v-129h-403v121l82 6q39 4 39 31q0 14 -11 35l-129 253q-33 63 -68.5 88t-115.5 25 h-252v-424l107 -6v-129h-381zM387 690h266q140 0 218.5 76.5t78.5 216.5q0 48 -8.5 85t-23 63.5t-41 44.5t-54.5 29t-72 16.5t-85 7.5t-101 2h-178v-541z"/>
<glyph unicode="S" horiz-adv-x="1069" d="M113 1010q0 170 122.5 272t329.5 102q214 0 361 -65v-309l-148 -15v160q0 31 -7.5 44.5t-35.5 23.5q-56 18 -174 18q-43 0 -80 -5.5t-74 -20.5t-63.5 -38.5t-42.5 -62t-16 -88.5q0 -27 5.5 -50t13 -41.5t23.5 -36t29 -29.5t38 -25.5t42.5 -21.5t50 -19.5t52 -18 t57.5 -18.5q50 -16 81 -27.5t76 -31.5t73 -39t59.5 -49t49.5 -63.5t30 -80t12 -100.5q0 -194 -123 -297t-365 -103q-238 0 -374 62v315l147 15v-156q0 -31 7.5 -44.5t35.5 -23.5q55 -22 193 -22q66 0 117 10.5t96 36.5t69.5 77t24.5 124q0 47 -16.5 85.5t-42.5 64.5 t-68.5 48t-82.5 35.5t-95 28.5q-57 16 -97.5 30t-89.5 36t-81.5 50t-61.5 64.5t-43 87t-14 111.5z"/>
<glyph unicode="T" horiz-adv-x="1138" d="M41 1069v293h1057v-293l-148 -14v110q0 31 -9.5 44.5t-41.5 13.5h-250v-1088l148 -6v-129h-463v121l90 6q38 5 50.5 17t12.5 46v1033h-249q-29 0 -39.5 -13t-10.5 -41v-114z"/>
<glyph unicode="U" horiz-adv-x="1382" d="M98 1233v129h381v-121l-61 -6q-30 -5 -40.5 -17.5t-10.5 -46.5v-743q0 -87 24 -148.5t69.5 -96.5t103.5 -50.5t134 -15.5q146 0 232 76t86 225v809l-107 6v129h381v-121l-57 -6q-31 -5 -43 -17.5t-12 -46.5v-788q0 -193 -134.5 -300.5t-355.5 -107.5q-243 0 -363 106 t-120 339v807z"/>
<glyph unicode="V" horiz-adv-x="1245" d="M20 1233v129h408v-121l-55 -6q-43 -3 -54 -23q-5 -9 -5 -22q0 -17 8 -41l313 -959l334 1037l-107 6v129h363v-121l-41 -4q-31 -5 -45.5 -18.5t-26.5 -49.5l-395 -1169h-174l-416 1227z"/>
<glyph unicode="W" horiz-adv-x="1746" d="M31 1233v129h393v-121l-53 -4q-38 -5 -53 -23t-5 -57l217 -960h5l253 1052h181l262 -1052h2l223 1030l-102 6v129h362v-121l-41 -4q-32 -5 -46.5 -18t-24.5 -52l-265 -1167h-202l-258 1022h-5l-253 -1022h-205l-279 1227z"/>
<glyph unicode="X" horiz-adv-x="1230" d="M31 0v121l41 4q24 2 40.5 12.5t34.5 38.5l367 543l-336 508l-82 6v129h389v-121l-55 -4q-36 -5 -36 -31q0 -18 16 -45l204 -323h2l263 389l-93 6v129h357v-121l-41 -4q-31 -4 -44 -14t-38 -45l-311 -445l401 -598l86 -6v-123l4 -6h-405v121l59 6q30 4 36.5 24t-11.5 46 l-269 405h-2l-309 -467l100 -6v-129h-368z"/>
<glyph unicode="Y" horiz-adv-x="1107" d="M20 1233v129h386v-121l-62 -6q-48 -4 -48 -36q0 -18 15 -44l244 -479h2l277 551l-103 6v129h356v-121l-45 -4q-27 -4 -39.5 -17t-33.5 -53l-340 -649v-383l127 -6v-129h-422v121l76 6q34 5 45.5 16t11.5 45v330l-377 711z"/>
<glyph unicode="Z" horiz-adv-x="1073" d="M76 0v135l715 1092h-478q-20 0 -32 -3.5t-17.5 -13.5t-6.5 -20t-1 -29v-139l-147 14v326h864v-137l-715 -1090h533q35 0 46 13t11 47v145l147 -14v-326h-919z"/>
<glyph unicode="[" horiz-adv-x="608" d="M201 -317v1757h383v-123h-232v-1512h232v-122h-383z"/>
<glyph unicode="\" horiz-adv-x="819" d="M14 1473l144 53l653 -1678l-141 -53z"/>
<glyph unicode="]" horiz-adv-x="608" d="M20 -195h232v1512h-232v123h383v-1757h-383v122z"/>
<glyph unicode="^" d="M102 631l377 731h146l372 -733l-141 -23l-307 606l-309 -608z"/>
<glyph unicode="_" horiz-adv-x="1024" d="M0 -152h1024v-118h-1024v118z"/>
<glyph unicode="`" horiz-adv-x="1024" d="M346 1483q0 22 12.5 36t40.5 27l76 35l225 -373l-63 -51l-248 246q-43 43 -43 80z"/>
<glyph unicode="a" horiz-adv-x="1130" d="M88 465q0 277 130.5 429.5t387.5 152.5q60 0 152.5 -16.5t183.5 -49.5v-807q0 -29 9 -41.5t34 -13.5l70 -4v-115h-252v121l-6 2q-41 -65 -115.5 -108.5t-183.5 -43.5q-106 0 -185.5 35.5t-128 101.5t-72.5 155t-24 202zM256 459q0 -54 6.5 -101.5t24.5 -95t46 -81 t75 -54.5t108 -21q123 0 195.5 72t72.5 172v524q-85 35 -204 35q-72 0 -128 -23.5t-92.5 -64t-60 -98.5t-33.5 -122.5t-10 -141.5z"/>
<glyph unicode="b" horiz-adv-x="1132" d="M72 1339v121h270v-532q107 119 281 119q192 0 300.5 -129t108.5 -355q0 -295 -118.5 -443.5t-338.5 -148.5q-101 0 -215 26.5t-176 63.5v1215q0 34 -10.5 45.5t-40.5 13.5zM342 166q39 -24 103 -40.5t133 -16.5q284 0 284 430q0 53 -6 99t-24 98t-47 88.5t-81 60.5 t-120 24q-106 0 -174 -55t-68 -145v-543z"/>
<glyph unicode="c" horiz-adv-x="952" d="M90 510q0 120 29 215t75.5 154t109 98t125 54.5t128.5 15.5q181 0 297 -84v-261l-145 -10v137q0 29 -8.5 42.5t-34.5 23.5q-38 12 -97 12q-146 0 -227.5 -95t-81.5 -296q0 -121 28 -208t96.5 -141t174.5 -54q137 0 254 94l68 -115q-57 -51 -143.5 -86t-190.5 -35 q-223 0 -340 137.5t-117 401.5z"/>
<glyph unicode="d" horiz-adv-x="1130" d="M90 479q0 262 126.5 415t356.5 153q105 0 211 -37v264q0 34 -10 44t-41 15l-61 6v121h270v-1278q0 -36 6.5 -46.5t34.5 -14.5l66 -6v-115h-246v119l-8 2q-104 -150 -301 -150q-110 0 -190.5 40.5t-126 112.5t-66.5 160t-21 195zM258 498q0 -389 260 -389q119 0 192.5 74 t73.5 167v510q-92 49 -217 49q-156 0 -232.5 -113t-76.5 -298z"/>
<glyph unicode="e" horiz-adv-x="964" d="M90 475q0 166 55.5 294.5t165 203t258.5 74.5q151 0 232.5 -69.5t81.5 -201.5q0 -86 -31 -150.5t-87.5 -102.5t-135 -61t-172.5 -26q-35 -1 -72 -1q-62 0 -129 3q2 -68 19.5 -124.5t51.5 -104t92 -74t136 -26.5q139 0 256 81l57 -118q-47 -37 -134 -69t-189 -32 q-122 0 -212 38.5t-142 109t-76.5 159t-24.5 197.5zM260 567q63 -7 122 -7q29 0 58 2q85 6 148.5 24.5t101 65.5t37.5 118q0 148 -162 148q-76 0 -134.5 -33t-92.5 -87.5t-52.5 -111.5t-25.5 -119z"/>
<glyph unicode="f" horiz-adv-x="688" d="M61 891v127h140v117q0 75 17 136t53 109t98.5 74.5t148.5 26.5q62 0 130.5 -17.5t111.5 -46.5l-45 -112q-77 47 -187 47q-90 0 -129 -54t-39 -157v-123h302v-127h-302v-762l170 -6v-123h-436v115l58 6q30 5 39.5 17.5t9.5 49.5v703h-140z"/>
<glyph unicode="g" horiz-adv-x="1122" d="M96 520q0 259 131.5 393t347.5 134q90 0 192.5 -18.5t184.5 -53.5v-918q0 -47 -2.5 -86.5t-13 -92.5t-28.5 -94.5t-52 -84.5t-79.5 -72t-115 -47t-155.5 -18q-201 0 -338 67v252l151 15v-115q0 -30 7.5 -42t35.5 -22q52 -18 136 -18q152 0 222.5 77.5t70.5 262.5v123 q-95 -133 -293 -133q-185 0 -293.5 125.5t-108.5 365.5zM264 528q0 -55 4.5 -98.5t20.5 -95.5t43 -86.5t77.5 -58t118.5 -23.5q123 0 195 72.5t72 189.5v449q-93 34 -230 34q-143 0 -222 -95.5t-79 -287.5z"/>
<glyph unicode="h" horiz-adv-x="1163" d="M72 1339v121h270v-594q49 93 131 137t184 44q161 0 243.5 -88.5t82.5 -264.5v-565l109 -6v-123h-375v115l53 6q31 5 42 17.5t11 49.5v463q0 59 -7.5 100t-29 77.5t-64.5 54.5t-108 18q-116 0 -194 -81t-78 -193v-498l111 -6v-123h-375v115l51 6q31 5 43 18t12 49v1088 q0 34 -10.5 45.5t-40.5 13.5z"/>
<glyph unicode="i" horiz-adv-x="555" d="M92 897v121h273v-889l108 -6v-123h-375v115l60 6q29 5 38 17t9 50v646q0 34 -10.5 45.5t-40.5 13.5zM158 1309q0 45 29.5 75.5t76.5 30.5q44 0 75.5 -31t31.5 -75q0 -47 -31 -78t-78 -31t-75.5 30.5t-28.5 78.5z"/>
<glyph unicode="j" horiz-adv-x="536" d="M-164 -377l51 127q87 -49 170 -49q70 0 103 41.5t33 138.5v953q0 35 -10 46t-40 13l-63 4v121h272v-1127q0 -38 -2 -67.5t-8.5 -65.5t-18.5 -62.5t-33.5 -53t-50.5 -43t-72.5 -27t-98.5 -10.5q-58 0 -122.5 16t-109.5 45zM150 1309q0 45 29.5 75.5t76.5 30.5t76.5 -30.5 t29.5 -75.5q0 -47 -30.5 -78t-77.5 -31t-75.5 30.5t-28.5 78.5z"/>
<glyph unicode="k" horiz-adv-x="1017" d="M72 1339v121h270v-921q120 12 221 97.5t129 192.5q5 17 5 30q0 36 -38 38l-77 4v117h370v-123l-100 -6q-12 -104 -72.5 -204.5t-142.5 -160.5l229 -395l111 -6v-123h-219l-252 455q-73 -35 -164 -47v-279l111 -6v-123h-375v115l57 6q30 5 39.5 17.5t9.5 49.5v1088 q0 35 -9 46t-38 13z"/>
<glyph unicode="l" horiz-adv-x="532" d="M82 1339v121h270v-1331l111 -6v-123h-375v115l57 8q30 5 40 16.5t10 48.5v1088q0 34 -11 45.5t-41 13.5z"/>
<glyph unicode="m" horiz-adv-x="1765" d="M82 897v121h256v-152q48 91 128.5 136t178.5 45q216 0 293 -191q95 191 317 191q160 0 244 -92t84 -269v-557l111 -6v-123h-375v115l47 4q32 5 45.5 19t13.5 50v459q0 60 -8 102t-29.5 78.5t-65 55t-108.5 18.5q-104 0 -174.5 -76t-70.5 -178v-518l110 -6v-123h-374v115 l61 8q29 4 37 14.5t8 42.5v465q0 57 -6.5 96.5t-26.5 79t-63 60t-109 20.5q-111 0 -182.5 -78t-71.5 -186v-508l111 -6v-123h-375v115l57 8q31 5 40.5 15t9.5 44v652q0 34 -11 45.5t-41 13.5z"/>
<glyph unicode="n" horiz-adv-x="1175" d="M82 897v121h264v-148q102 177 324 177q325 0 325 -353v-565l109 -6v-123h-375v115l59 8q30 5 39 15t9 42v465q0 129 -42.5 192.5t-162.5 63.5q-119 0 -198 -82t-79 -186v-504l109 -6v-123h-375v115l57 6q30 5 40 16t10 41v656q0 34 -11 45.5t-41 13.5z"/>
<glyph unicode="o" horiz-adv-x="1064" d="M90 516q0 122 28.5 217.5t74 153t107.5 95t122.5 51.5t126.5 14q35 0 68 -3.5t77.5 -16.5t81 -34t74.5 -60t64 -90.5t42.5 -129.5t16.5 -174q0 -146 -34.5 -256.5t-97 -177.5t-145 -100.5t-182.5 -33.5q-200 0 -312 137.5t-112 407.5zM260 537q0 -66 5 -121t22.5 -115.5 t45.5 -102t78 -69t117 -27.5q71 0 124.5 32.5t85.5 89t47.5 127t15.5 153.5q0 409 -264 409q-141 0 -209 -103t-68 -273z"/>
<glyph unicode="p" horiz-adv-x="1130" d="M72 897v121h264v-148q39 79 117 128t198 49q379 0 379 -527q0 -264 -114 -406.5t-310 -142.5q-152 0 -262 78v-342l150 -8v-123h-416v115l55 8q31 5 41 16.5t10 48.5v1070q0 34 -10.5 45.5t-40.5 13.5zM342 203q45 -39 114.5 -64.5t137.5 -25.5q70 0 122.5 31t83 87 t45.5 126.5t15 156.5q0 71 -6 126t-21.5 106t-42 84t-69 53t-100.5 20q-115 0 -197 -78t-82 -172v-450z"/>
<glyph unicode="q" horiz-adv-x="1099" d="M90 483q0 267 131 415.5t361 148.5q174 0 348 -72v-1268l108 -8v-123h-415v115l94 8q31 5 42 17t11 48v334q-87 -127 -295 -127q-190 0 -287.5 130t-97.5 382zM258 516q0 -44 1 -74.5t6.5 -76.5t14.5 -78t27.5 -68t44 -58t65 -37t89.5 -15q119 0 192.5 65t73.5 145v553 q-78 35 -180 35q-167 0 -250.5 -104t-83.5 -287z"/>
<glyph unicode="r" horiz-adv-x="884" d="M82 897v121h256v-152q31 81 104.5 131t184.5 50q110 0 190 -48v-286l-151 -15v138q0 16 -1 22.5t-6 12.5t-16 10q-30 10 -70 10q-98 0 -159.5 -72t-61.5 -178v-512l152 -6v-123h-416v115l53 6q31 5 42.5 16t11.5 45v656q0 31 -9.5 42t-35.5 13z"/>
<glyph unicode="s" horiz-adv-x="878" d="M92 37v254l150 14v-127q0 -25 7 -35t27 -18q64 -23 138 -23q219 0 219 170q0 44 -12.5 73.5t-42 49.5t-63 32t-91.5 26q-43 11 -69.5 19t-63.5 22t-59.5 28t-48 36t-39.5 48t-23.5 61.5t-9.5 77.5q0 147 104.5 224.5t265.5 77.5q88 0 167 -19.5t126 -54.5v-221l-145 -15 v109q0 29 -6.5 40t-26.5 17q-47 17 -133 17t-142.5 -37.5t-56.5 -118.5q0 -40 13.5 -68t45.5 -48t59 -30.5t80 -27.5q13 -4 19 -6q134 -42 185 -71q117 -67 126 -204q1 -13 1 -26q0 -151 -98 -231.5t-273 -80.5q-104 0 -198 21t-132 45z"/>
<glyph unicode="t" horiz-adv-x="733" d="M39 881l20 127q38 3 68 18.5t49 35t35.5 54.5t25.5 61t21 70h86v-229h291l-21 -137h-270v-598q0 -98 36 -136t112 -38q89 0 157 45l47 -115q-98 -68 -235 -68q-56 0 -100 10t-73 24.5t-49.5 40.5t-31 48.5t-16 58.5t-6.5 61t-1 65v602h-145z"/>
<glyph unicode="u" horiz-adv-x="1173" d="M68 897v121h272v-651q0 -67 7.5 -110t28 -78.5t60.5 -51.5t103 -16q118 0 200 81t82 201v441q0 34 -10.5 45.5t-40.5 13.5l-61 4v121h270v-830q0 -38 9 -50t38 -17l59 -6v-115h-256v135h-4q-91 -164 -315 -164q-330 0 -330 351v512q0 34 -10.5 45.5t-40.5 13.5z"/>
<glyph unicode="v" horiz-adv-x="1052" d="M20 903v115h383v-119l-77 -6q-29 -4 -29 -33q0 -11 4 -24l223 -695h2l258 748l-100 8v121h348v-115l-45 -4q-28 -5 -40 -15t-23 -44l-301 -840h-205l-312 891z"/>
<glyph unicode="w" horiz-adv-x="1531" d="M20 905v113h367v-115l-65 -4q-26 -4 -32.5 -16t-0.5 -37l172 -672h2l223 832h168l219 -836h2l187 719l-91 8v121h340v-113l-51 -6q-26 -4 -38.5 -20.5t-24.5 -59.5l-223 -819h-193l-215 809l-213 -809h-195l-245 895z"/>
<glyph unicode="x" horiz-adv-x="1032" d="M41 0v121l53 6q32 5 48 14t34 35l260 344l-270 367l-82 10v121h369v-125l-54 -4q-25 -2 -31.5 -18.5t11.5 -41.5l147 -204h2l195 260l-82 6v127h350v-123l-57 -4q-24 -1 -40 -12.5t-42 -40.5l-240 -303l275 -402l104 -12v-121h-387v121l62 6q25 4 29 21t-13 40l-162 234 l-215 -295l92 -4v-123h-356z"/>
<glyph unicode="y" horiz-adv-x="1019" d="M-43 -379l49 123q96 -47 180 -47q61 0 105.5 43.5t81.5 136.5l51 129l-318 885l-86 12v115h361v-119l-53 -4q-38 -5 -38 -35q0 -9 3 -20l215 -650h6l242 699l-101 8v121h344v-115l-45 -4q-28 -5 -39 -13.5t-22 -41.5l-318 -858q-24 -65 -37.5 -101t-37 -88t-43 -80.5 t-49 -62.5t-60.5 -51t-73 -29t-91 -12q-61 0 -125 17.5t-102 41.5z"/>
<glyph unicode="z" horiz-adv-x="933" d="M61 0v113l588 772h-356q-33 0 -41 -11t-8 -43v-106l-150 14v279h758v-103l-596 -782h397q30 0 38.5 12.5t8.5 47.5v100l148 -14v-279h-787z"/>
<glyph unicode="{" horiz-adv-x="604" d="M111 526v99q76 17 100.5 64t24.5 165q0 62 -9.5 179t-9.5 173q0 122 55 184t160 62q89 0 139 -18l-20 -111q-49 12 -86 12q-63 0 -80.5 -29t-17.5 -110q0 -46 8 -180t8 -178q0 -112 -26.5 -173.5t-100.5 -89.5q77 -28 103 -82t26 -171q0 -44 -10 -183t-10 -188 q0 -84 19.5 -121t82.5 -37q29 0 84 10l18 -108q-82 -19 -139 -19q-63 0 -106.5 18.5t-66.5 53t-32.5 75t-9.5 93.5q0 70 9 202t9 193q0 99 -25.5 149t-96.5 66z"/>
<glyph unicode="|" horiz-adv-x="460" d="M156 -180v1710h149v-1710h-149z"/>
<glyph unicode="}" horiz-adv-x="604" d="M12 1434q50 18 140 18q105 0 160 -62t55 -184q0 -56 -9.5 -173t-9.5 -179q0 -118 24.5 -165t100.5 -64v-99q-71 -16 -97 -66.5t-26 -148.5q0 -61 9.5 -193t9.5 -202q0 -53 -9.5 -93.5t-32.5 -75t-66.5 -53t-106.5 -18.5q-58 0 -140 19l19 108q55 -10 84 -10q63 0 82.5 37 t19.5 121q0 49 -10 188t-10 183q0 117 26 171t103 82q-74 28 -100.5 89.5t-26.5 173.5q0 44 8 178t8 180q0 81 -17.5 110t-80.5 29q-37 0 -86 -12z"/>
<glyph unicode="~" horiz-adv-x="1179" d="M150 553q102 188 247 188q53 0 111 -24.5t99.5 -54t93 -54t92.5 -24.5q40 0 71 24t60 86l106 -55q-77 -186 -242 -186q-53 0 -111.5 24t-100.5 53.5t-92 53.5t-89 24q-40 0 -71.5 -26.5t-67.5 -87.5z"/>
<glyph unicode="¡" horiz-adv-x="534" d="M158 930q0 49 31 83t81 34q53 0 85 -32.5t32 -82.5q0 -47 -32 -80t-79 -33q-53 0 -85.5 31.5t-32.5 79.5zM186 -35l35 711h101l32 -711v-264q0 -74 -82 -74q-50 0 -68 19.5t-18 56.5v262z"/>
<glyph unicode="¢" horiz-adv-x="980" d="M92 645q0 101 22 184.5t58 141t86.5 99.5t104 65.5t114.5 33.5v234h125v-223q176 -9 293 -84v-250l-154 -10v137q0 30 -8 42.5t-37 22.5q-54 13 -94 13v-803q127 9 240 94l69 -115q-123 -107 -309 -118v-232h-125v234q-385 50 -385 534zM256 651q0 -343 221 -395v778 q-221 -65 -221 -383z"/>
<glyph unicode="£" horiz-adv-x="1124" d="M102 4v129q71 41 125 130t64 200l14 184h-203l19 123h190l17 201q7 88 34.5 155t66 108t91 67t103 35.5t106.5 9.5q170 0 334 -76v-260l-148 -15v135q0 31 -7.5 44.5t-35.5 23.5q-65 21 -135 21q-121 0 -186.5 -72t-73.5 -205l-10 -172h387l-16 -121h-375l-4 -76 q-3 -50 -5.5 -75.5t-8.5 -65.5t-16 -66.5t-27 -61.5t-42.5 -68t-60.5 -70l4 -6q67 20 135 20q62 0 161 -25.5t183 -25.5q98 0 215 25l-16 -134q-110 -22 -203 -22q-101 0 -222.5 28.5t-203.5 28.5q-54 0 -125 -13.5t-125 -37.5z"/>
<glyph unicode="¥" horiz-adv-x="1073" d="M68 1190v129h385v-121l-62 -6q-65 -6 -37 -72l187 -358l213 422l-103 6v129h357v-121l-45 -4q-24 -5 -37 -14t-25 -31l-219 -408h276v-114h-342v-176h342v-117h-342v-199l132 -6v-129h-422v121l75 6q34 5 46 16t12 45v146h-348v117h348v176h-348v114h282l-246 445z"/>
<glyph unicode="¦" horiz-adv-x="464" d="M156 -180v772h153v-772h-153zM156 831v699h153v-699h-153z"/>
<glyph unicode="§" horiz-adv-x="1034" d="M92 588q0 76 41 148.5t119 117.5q-45 78 -45 174q0 40 9 80.5t34 86t64 80t105.5 57t151.5 22.5q86 0 172 -24.5t129 -53.5v-215l-145 -14v108q0 29 -6.5 40t-26.5 17q-63 17 -114 17q-112 0 -168 -54t-56 -141q0 -39 15.5 -74t38.5 -61.5t62.5 -55t73.5 -48.5t85 -48 l33 -18q127 -72 202.5 -159t75.5 -205q0 -74 -44 -146t-120 -115q51 -79 51 -178q0 -46 -9 -90.5t-34 -92t-64 -82.5t-105.5 -58t-151.5 -23q-86 0 -172 24.5t-129 53.5v215l145 14v-108q0 -29 6.5 -40.5t26.5 -17.5q59 -16 115 -16q111 0 167 60t56 153q0 24 -4.5 46 t-15 41.5t-20 35.5t-28.5 32.5t-32 27.5t-38.5 26.5t-39 23t-42 23.5t-40.5 23q-57 33 -91 54t-77.5 52t-68 58t-48 62.5t-33.5 76t-10 88.5zM246 608q-3 -37 8.5 -71t28.5 -58t50 -51t58.5 -43t67.5 -41q14 -8 104.5 -58.5t130.5 -82.5q97 61 97 153q0 79 -56.5 138.5 t-156.5 115.5q-20 12 -77 42.5t-95 53.5t-70 48q-82 -54 -90 -146z"/>
<glyph unicode="¨" horiz-adv-x="1024" d="M231 1309q0 47 30 76.5t77 29.5q45 0 74.5 -29.5t29.5 -76.5t-30.5 -77t-75.5 -30q-47 0 -76 30t-29 77zM600 1309q0 47 30 76.5t77 29.5q45 0 74.5 -29.5t29.5 -76.5t-30.5 -77t-75.5 -30q-47 0 -76 30t-29 77z"/>
<glyph unicode="©" horiz-adv-x="1665" d="M123 668q0 148 52 280t143 228t222.5 152t282.5 56q156 0 291.5 -56t228.5 -151t146 -224t53 -273q0 -203 -91.5 -367.5t-256.5 -259t-371 -94.5q-321 0 -510.5 196.5t-189.5 512.5zM250 668q0 -272 160 -435t415 -163t422.5 171t167.5 433q0 169 -77 306.5t-212 215.5 t-301 78q-127 0 -235 -47t-182 -128t-116 -192.5t-42 -238.5zM475 678q0 91 23 163.5t59 117t84 74t94.5 41t93.5 11.5q81 0 165 -41t132 -116l-86 -62q-102 113 -209 113q-108 0 -170.5 -73.5t-62.5 -225.5q0 -307 240 -307q116 0 209 80l63 -80q-123 -107 -272 -107 q-179 0 -271 109t-92 303z"/>
<glyph unicode="ª" horiz-adv-x="821" d="M92 858q0 182 93 285.5t264 103.5q120 0 243 -45v-528q0 -41 45 -47l33 -4v-84h-199v79h-8q-81 -94 -196 -94q-71 0 -125 27.5t-86 75t-48 106t-16 125.5zM227 879q0 -115 41.5 -181.5t126.5 -66.5q68 0 114 36.5t46 73.5v379q-57 21 -125 21q-99 0 -151 -75t-52 -187z "/>
<glyph unicode="«" horiz-adv-x="1007" d="M113 543q0 40 51 84q128 122 325 272l64 -63l-279 -295l263 -338l-68 -62q-90 81 -191 181.5t-137 152.5q-28 40 -28 68zM489 543q0 39 52 84q128 122 325 272l64 -63l-279 -295l262 -338l-67 -62q-90 81 -191 181.5t-137 152.5q-29 42 -29 68z"/>
<glyph unicode="¬" d="M109 690v137h878v-419h-141v282h-737z"/>
<glyph unicode="­" horiz-adv-x="659" d="M100 539v135h455v-135h-455z"/>
<glyph unicode="®" horiz-adv-x="948" d="M82 1004q0 166 108.5 274t278.5 108q173 0 285 -108t112 -270q0 -168 -111.5 -276.5t-285.5 -108.5q-177 0 -282 106t-105 275zM174 1004q0 -136 82.5 -220t212.5 -84q136 0 221.5 83.5t85.5 220.5q0 134 -86 219.5t-221 85.5q-134 0 -214.5 -85t-80.5 -220zM332 793v432 h160q64 0 100.5 -30t36.5 -85q0 -87 -72 -117q12 -5 27 -30l78 -170h-89l-65 145q-13 29 -33 29h-67v-174h-76zM408 1032h63q37 0 55.5 19t18.5 51q0 59 -86 59h-51v-129z"/>
<glyph unicode="¯" horiz-adv-x="1024" d="M240 1247v133h532v-133h-532z"/>
<glyph unicode="°" horiz-adv-x="610" d="M86 1225q0 100 59 163.5t160 63.5t160 -62t59 -153q0 -104 -61 -167.5t-164 -63.5q-101 0 -157 61.5t-56 157.5zM193 1225q0 -57 29 -91t83 -34t83.5 34.5t29.5 90.5q0 62 -28.5 97.5t-84.5 35.5q-112 0 -112 -133z"/>
<glyph unicode="±" d="M133 115v137h336v334h-336v137h336v338h143v-338h351v-137h-351v-334h351v-137h-830z"/>
<glyph unicode="²" horiz-adv-x="669" d="M76 698v97l256 303q38 46 56 70.5t35 61t17 68.5q0 97 -125 97q-45 0 -86 -15q-22 -8 -32.5 -20t-10.5 -37v-82l-110 14v181q103 73 260 73q121 0 181.5 -53.5t60.5 -136.5q0 -69 -24.5 -121t-82.5 -117l-229 -272h368v-111h-534z"/>
<glyph unicode="³" horiz-adv-x="643" d="M41 741l39 101q103 -47 199 -47q159 0 159 139q0 129 -180 129h-55l8 100h115q47 22 71.5 54t24.5 83q0 52 -35 75.5t-84 23.5q-43 0 -86 -15q-22 -8 -32.5 -20t-10.5 -37v-82l-111 15v180q46 28 114.5 48.5t133.5 20.5q118 0 179 -58t61 -142q0 -57 -22.5 -100 t-69.5 -87q104 -61 104 -182q0 -110 -68.5 -181t-207.5 -71q-67 0 -136 16t-110 37z"/>
<glyph unicode="´" horiz-adv-x="1024" d="M317 1208l226 371l82 -35q45 -17 45 -57q0 -25 -9.5 -42.5t-33.5 -41.5l-246 -246z"/>
<glyph unicode="µ" horiz-adv-x="1206" d="M182 -442v1460h142v-610q0 -145 63.5 -231.5t196.5 -86.5q129 0 208.5 100t79.5 256v572h146v-858q0 -40 14 -55t43 -15q32 0 99 33l30 -96q-83 -50 -170 -50q-79 0 -112 46.5t-27 144.5q-96 -197 -303 -197q-177 0 -270 129v-542h-140z"/>
<glyph unicode="¶" horiz-adv-x="1030" d="M102 891q0 127 36 220.5t101.5 147t147.5 78.5t184 25h357v-121l-62 -4q-30 -2 -40.5 -13.5t-10.5 -45.5v-1031q0 -174 -44 -282t-139.5 -173.5t-266.5 -107.5l-37 131q182 49 256.5 139t74.5 250v1135h-153v-790q-84 4 -156.5 33.5t-128 82.5t-87.5 137t-32 189z"/>
<glyph unicode="·" horiz-adv-x="622" d="M193 631q0 51 32.5 84t83.5 33q56 0 88.5 -30.5t32.5 -84.5q0 -55 -31 -89t-84 -34q-59 0 -90.5 33t-31.5 88z"/>
<glyph unicode="¸" horiz-adv-x="1024" d="M285 -401l26 86q84 -27 135 -27q105 0 105 78q0 46 -43.5 64t-138.5 18l65 188h98l-34 -115q78 -5 125 -42t47 -109q0 -88 -61.5 -133t-155.5 -45q-92 0 -168 37z"/>
<glyph unicode="¹" horiz-adv-x="636" d="M74 1362l241 135h119v-682l152 -8v-109h-445v109l123 4q20 0 28.5 8t8.5 31v508l-182 -86z"/>
<glyph unicode="º" horiz-adv-x="817" d="M96 883q0 84 20 150t51.5 106.5t75 66t85.5 35.5t88 10q64 0 117.5 -19t96.5 -58t67 -106.5t24 -158.5q0 -187 -84.5 -286t-235.5 -99q-148 0 -226.5 98t-78.5 261zM233 915q0 -58 8.5 -106.5t27.5 -89t54 -63.5t83 -23q88 0 133 69.5t45 184.5q0 125 -41.5 191.5 t-139.5 66.5q-85 0 -127.5 -68.5t-42.5 -161.5z"/>
<glyph unicode="»" horiz-adv-x="1007" d="M78 836l63 63q202 -153 326 -272q51 -44 51 -84q0 -26 -29 -68q-36 -52 -137 -153t-190 -181l-68 62l262 338zM455 836l63 63q202 -153 326 -272q51 -44 51 -84q0 -26 -29 -68q-36 -52 -137 -153t-190 -181l-68 62l262 338z"/>
<glyph unicode="¼" horiz-adv-x="1638" d="M33 1198l241 135h119v-682l152 -8v-108h-445v108l123 4q20 0 28.5 8t8.5 31v508l-182 -86zM469 49l598 1284l123 -53l-602 -1286zM954 180v96l248 539l105 -47l-224 -483h224v69l39 162h81v-231h140v-109h-140v-63l84 -4v-109h-301v111l56 2q20 0 28.5 8t8.5 31v28h-349z "/>
<glyph unicode="½" horiz-adv-x="1638" d="M47 1198l242 135h119v-682l151 -8v-108h-444v108l123 4q20 0 28 7.5t8 31.5v508l-182 -86zM442 49l598 1284l123 -53l-602 -1286zM1020 0v96l256 303q37 46 56 71t35.5 61.5t16.5 68.5q0 96 -124 96q-48 0 -86 -14q-23 -8 -33.5 -20.5t-10.5 -36.5v-82l-110 14v180 q104 74 260 74q121 0 181.5 -53.5t60.5 -136.5q0 -69 -24.5 -121t-82.5 -117l-229 -272h368v-111h-534z"/>
<glyph unicode="¾" horiz-adv-x="1638" d="M84 578l39 100q103 -47 199 -47q159 0 159 139q0 129 -180 129h-55l8 100h115q96 44 96 138q0 52 -35 75t-84 23q-46 0 -86 -14q-22 -8 -32.5 -20.5t-10.5 -37.5v-82l-111 15v180q47 29 115 49.5t133 20.5q118 0 179 -58.5t61 -142.5q0 -57 -22.5 -100t-69.5 -87 q104 -61 104 -182q0 -110 -68.5 -181t-207.5 -71q-67 0 -136 16.5t-110 37.5zM463 49l598 1284l123 -53l-602 -1286zM950 180v96l248 539l105 -47l-224 -483h224v69l38 162h82v-231h140v-109h-140v-63l84 -4v-109h-301v111l56 2q20 0 28 7.5t8 31.5v28h-348z"/>
<glyph unicode="¿" horiz-adv-x="741" d="M63 -88q0 59 12.5 108.5t29.5 83t49.5 68.5t58 55.5t70.5 53.5q72 51 99.5 91t27.5 109v181h135l12 -168q4 -57 -3.5 -99t-30 -78t-51.5 -63.5t-79 -65.5q-80 -60 -103 -84q-67 -71 -67 -178q0 -83 50 -123.5t128 -40.5q75 0 115 13q27 11 35 22.5t8 40.5v119l148 -14 v-240q-148 -76 -312 -76q-86 0 -152 25t-104 66.5t-57 90.5t-19 103zM354 928q0 48 31.5 82t81.5 34q53 0 85 -32t32 -82q0 -47 -32 -80t-79 -33q-53 0 -86 31.5t-33 79.5z"/>
<glyph unicode="À" horiz-adv-x="1331" d="M31 0v121l55 8q27 5 38 13t21 38l369 1041l-106 12v129h346l440 -1227l106 -6v-129h-407v121l70 8q29 5 41 19.5t0 48.5l-80 223h-537l-98 -285l106 -6v-129h-364zM356 1731q0 35 33 55l66 51l313 -303l-49 -68l-301 181q-32 19 -47 37.5t-15 46.5zM426 551h459l-230 666 h-2z"/>
<glyph unicode="Á" horiz-adv-x="1331" d="M31 0v121l55 8q27 5 38 13t21 38l369 1041l-106 12v129h346l440 -1227l106 -6v-129h-407v121l70 8q29 5 41 19.5t0 48.5l-80 223h-537l-98 -285l106 -6v-129h-364zM426 551h459l-230 666h-2zM471 1534l311 303l70 -55q31 -22 31 -53q0 -27 -17 -45.5t-51 -38.5l-295 -179 z"/>
<glyph unicode="Â" horiz-adv-x="1331" d="M31 0v121l55 8q27 5 38 13t21 38l369 1041l-106 12v129h346l440 -1227l106 -6v-129h-407v121l70 8q29 5 41 19.5t0 48.5l-80 223h-537l-98 -285l106 -6v-129h-364zM317 1520l215 247q42 50 91 50q52 0 90 -45l221 -252l-62 -54l-249 181l-246 -181zM426 551h459l-230 666 h-2z"/>
<glyph unicode="Ã" horiz-adv-x="1331" d="M31 0v121l55 8q27 5 38 13t21 38l369 1041l-106 12v129h346l440 -1227l106 -6v-129h-407v121l70 8q29 5 41 19.5t0 48.5l-80 223h-537l-98 -285l106 -6v-129h-364zM287 1552q74 146 188 146q52 0 144.5 -29t125.5 -29q64 0 105 66l88 -45q-53 -152 -186 -152 q-48 0 -142.5 29t-130.5 29q-33 0 -54.5 -13.5t-53.5 -48.5zM426 551h459l-230 666h-2z"/>
<glyph unicode="Ä" horiz-adv-x="1331" d="M31 0v121l55 8q27 5 38 13t21 38l369 1041l-106 12v129h346l440 -1227l106 -6v-129h-407v121l70 8q29 5 41 19.5t0 48.5l-80 223h-537l-98 -285l106 -6v-129h-364zM315 1599q0 45 30 75t77 30q44 0 74 -30.5t30 -74.5q0 -47 -30.5 -76.5t-75.5 -29.5q-47 0 -76 29.5 t-29 76.5zM426 551h459l-230 666h-2zM700 1599q0 45 30 75t77 30q44 0 74 -30.5t30 -74.5q0 -47 -30.5 -76.5t-75.5 -29.5q-47 0 -76 29.5t-29 76.5z"/>
<glyph unicode="Å" horiz-adv-x="1331" d="M31 0v121l55 8q27 5 38 13t21 38l369 1041l-106 12v129h346l440 -1227l106 -6v-129h-407v121l70 8q29 5 41 19.5t0 48.5l-80 223h-537l-98 -285l106 -6v-129h-364zM422 1616q0 89 54 144t145 55t144.5 -53.5t53.5 -135.5q0 -93 -55 -150t-148 -57q-91 0 -142.5 55 t-51.5 142zM426 551h459l-230 666h-2zM535 1616q0 -46 21.5 -73t64.5 -27t64.5 27.5t21.5 72.5q0 102 -86 102t-86 -102z"/>
<glyph unicode="Æ" horiz-adv-x="1691" d="M10 0v121l56 8q27 5 38 13t21 38l369 1041l-107 12v129h1198v-283l-147 -14v104q0 28 -11.5 41t-44.5 13h-579l166 -459h532v-139h-504l174 -486h234q30 0 38.5 12t8.5 44v112l147 -14v-293h-727v121l70 8q29 5 41 19.5t0 48.5l-80 223h-536l-99 -285l107 -6v-129h-365z M406 551h458l-231 666z"/>
<glyph unicode="Ç" horiz-adv-x="1232" d="M111 680q0 154 35 276.5t93 201.5t139.5 131.5t169.5 74.5t187 22q213 0 375 -75v-299l-147 -15v162q0 31 -7.5 44.5t-35.5 23.5q-63 18 -168 18q-229 0 -350 -143.5t-121 -392.5q0 -290 114.5 -439t366.5 -149q119 0 180 20q28 10 34.5 22t6.5 44v160l147 -15v-295 q-142 -79 -378 -82l-25 -84q78 -5 125 -42t47 -109q0 -88 -61.5 -133t-155.5 -45q-92 0 -168 37l27 86q84 -27 135 -27q104 0 104 78q0 46 -43.5 64t-138.5 18l55 162q-264 25 -403 199.5t-139 500.5z"/>
<glyph unicode="È" horiz-adv-x="1093" d="M113 0v121l57 8q30 5 42.5 16t12.5 43v1039l-106 8v127h868v-283l-147 -14v104q0 28 -11.5 41t-44.5 13h-397v-459h516v-139h-516v-486h420q30 0 38.5 12t8.5 44v112l147 -14v-293h-888zM344 1731q0 35 33 55l65 51l314 -303l-49 -68l-301 181q-32 19 -47 37.5t-15 46.5z "/>
<glyph unicode="É" horiz-adv-x="1093" d="M113 0v121l57 8q30 5 42.5 16t12.5 43v1039l-106 8v127h868v-283l-147 -14v104q0 28 -11.5 41t-44.5 13h-397v-459h516v-139h-516v-486h420q30 0 38.5 12t8.5 44v112l147 -14v-293h-888zM438 1534l312 303l69 -55q31 -22 31 -53q0 -27 -17 -45.5t-51 -38.5l-295 -179z "/>
<glyph unicode="Ê" horiz-adv-x="1093" d="M113 0v121l57 8q30 5 42.5 16t12.5 43v1039l-106 8v127h868v-283l-147 -14v104q0 28 -11.5 41t-44.5 13h-397v-459h516v-139h-516v-486h420q30 0 38.5 12t8.5 44v112l147 -14v-293h-888zM272 1520l215 247q42 50 91 50q52 0 90 -45l221 -252l-62 -54l-249 181l-246 -181z "/>
<glyph unicode="Ë" horiz-adv-x="1093" d="M113 0v121l57 8q30 5 42.5 16t12.5 43v1039l-106 8v127h868v-283l-147 -14v104q0 28 -11.5 41t-44.5 13h-397v-459h516v-139h-516v-486h420q30 0 38.5 12t8.5 44v112l147 -14v-293h-888zM279 1599q0 45 29.5 75t76.5 30q44 0 74 -30.5t30 -74.5q0 -47 -30.5 -76.5 t-75.5 -29.5q-47 0 -75.5 29.5t-28.5 76.5zM664 1599q0 45 29.5 75t76.5 30q44 0 74 -30.5t30 -74.5q0 -47 -30.5 -76.5t-75.5 -29.5q-47 0 -75.5 29.5t-28.5 76.5z"/>
<glyph unicode="Ì" horiz-adv-x="612" d="M33 1731q0 35 33 55l65 51l313 -303l-49 -68l-301 181q-31 19 -46 37.5t-15 46.5zM113 0v121l55 6q32 5 44.5 17.5t12.5 48.5v1034l-106 6v129h381v-121l-60 -6q-30 -5 -41.5 -17.5t-11.5 -46.5v-1036l107 -6v-129h-381z"/>
<glyph unicode="Í" horiz-adv-x="612" d="M113 0v121l55 6q32 5 44.5 17.5t12.5 48.5v1034l-106 6v129h381v-121l-60 -6q-30 -5 -41.5 -17.5t-11.5 -46.5v-1036l107 -6v-129h-381zM164 1534l311 303l70 -55q30 -21 30 -53q0 -27 -16.5 -45.5t-50.5 -38.5l-295 -179z"/>
<glyph unicode="Î" horiz-adv-x="612" d="M2 1520l215 247q42 50 90 50q52 0 90 -45l221 -252l-61 -54l-250 181l-246 -181zM113 0v121l55 6q32 5 44.5 17.5t12.5 48.5v1034l-106 6v129h381v-121l-60 -6q-30 -5 -41.5 -17.5t-11.5 -46.5v-1036l107 -6v-129h-381z"/>
<glyph unicode="Ï" horiz-adv-x="612" d="M6 1599q0 45 30 75t77 30q44 0 74 -30.5t30 -74.5q0 -47 -30.5 -76.5t-75.5 -29.5q-47 0 -76 29.5t-29 76.5zM113 0v121l55 6q32 5 44.5 17.5t12.5 48.5v1034l-106 6v129h381v-121l-60 -6q-30 -5 -41.5 -17.5t-11.5 -46.5v-1036l107 -6v-129h-381zM391 1599q0 45 30 75 t77 30q44 0 74 -30.5t30 -74.5q0 -47 -30.5 -76.5t-75.5 -29.5q-47 0 -76 29.5t-29 76.5z"/>
<glyph unicode="Ð" horiz-adv-x="1392" d="M119 618v136h127v473l-107 8v127h523q289 0 454.5 -162t165.5 -469q0 -158 -33 -283.5t-89 -208t-134.5 -137.5t-165.5 -78.5t-186 -23.5h-541v121l60 8q31 5 42 16t11 45v428h-127zM408 131h270q207 0 323.5 144t116.5 417q0 122 -24 216t-65 154.5t-101.5 99t-128 54 t-150.5 15.5h-241v-477h415v-136h-415v-487z"/>
<glyph unicode="Ñ" horiz-adv-x="1462" d="M113 0v121l61 8q30 5 40.5 15t10.5 40v1043l-106 6v129h299l678 -1110h2v975l-109 6v129h381v-121l-61 -8q-31 -5 -41.5 -16.5t-10.5 -45.5v-1171h-178l-692 1130h-2v-995l109 -6v-129h-381zM422 1552q74 146 188 146q52 0 145 -29t126 -29q63 0 104 66l88 -45 q-53 -152 -186 -152q-48 0 -142.5 29t-130.5 29q-33 0 -54.5 -13.5t-53.5 -48.5z"/>
<glyph unicode="Ò" horiz-adv-x="1353" d="M109 678q0 152 34 275t90.5 202t133 132.5t157.5 76t168 22.5q92 0 171.5 -23t150.5 -76t121.5 -133t80 -201.5t29.5 -274.5q0 -345 -151.5 -524t-421.5 -179q-267 0 -415 179t-148 524zM279 684q0 -565 409 -565q86 0 154 31t111 83t71 124.5t39.5 149.5t11.5 165 q0 64 -7.5 126t-24 128t-46.5 121t-71.5 99.5t-103 69.5t-136.5 25q-108 0 -189.5 -47t-127.5 -128t-68 -176.5t-22 -205.5zM451 1731q0 36 32 55l66 51l313 -303l-49 -68l-301 181q-31 19 -46 37.5t-15 46.5z"/>
<glyph unicode="Ó" horiz-adv-x="1353" d="M109 678q0 152 34 275t90.5 202t133 132.5t157.5 76t168 22.5q92 0 171.5 -23t150.5 -76t121.5 -133t80 -201.5t29.5 -274.5q0 -345 -151.5 -524t-421.5 -179q-267 0 -415 179t-148 524zM279 684q0 -565 409 -565q86 0 154 31t111 83t71 124.5t39.5 149.5t11.5 165 q0 64 -7.5 126t-24 128t-46.5 121t-71.5 99.5t-103 69.5t-136.5 25q-108 0 -189.5 -47t-127.5 -128t-68 -176.5t-22 -205.5zM512 1534l311 303l70 -55q31 -22 31 -53q0 -27 -17 -45.5t-51 -38.5l-295 -179z"/>
<glyph unicode="Ô" horiz-adv-x="1353" d="M109 678q0 152 34 275t90.5 202t133 132.5t157.5 76t168 22.5q92 0 171.5 -23t150.5 -76t121.5 -133t80 -201.5t29.5 -274.5q0 -345 -151.5 -524t-421.5 -179q-267 0 -415 179t-148 524zM279 684q0 -565 409 -565q86 0 154 31t111 83t71 124.5t39.5 149.5t11.5 165 q0 64 -7.5 126t-24 128t-46.5 121t-71.5 99.5t-103 69.5t-136.5 25q-108 0 -189.5 -47t-127.5 -128t-68 -176.5t-22 -205.5zM379 1520l215 247q42 50 90 50q52 0 90 -45l221 -252l-61 -54l-250 181l-246 -181z"/>
<glyph unicode="Õ" horiz-adv-x="1353" d="M109 678q0 152 34 275t90.5 202t133 132.5t157.5 76t168 22.5q92 0 171.5 -23t150.5 -76t121.5 -133t80 -201.5t29.5 -274.5q0 -345 -151.5 -524t-421.5 -179q-267 0 -415 179t-148 524zM279 684q0 -565 409 -565q86 0 154 31t111 83t71 124.5t39.5 149.5t11.5 165 q0 64 -7.5 126t-24 128t-46.5 121t-71.5 99.5t-103 69.5t-136.5 25q-108 0 -189.5 -47t-127.5 -128t-68 -176.5t-22 -205.5zM371 1552q74 146 188 146q52 0 144.5 -29t125.5 -29q64 0 105 66l88 -45q-53 -152 -186 -152q-48 0 -142.5 29t-130.5 29q-33 0 -54.5 -13.5 t-53.5 -48.5z"/>
<glyph unicode="Ö" horiz-adv-x="1353" d="M109 678q0 152 34 275t90.5 202t133 132.5t157.5 76t168 22.5q92 0 171.5 -23t150.5 -76t121.5 -133t80 -201.5t29.5 -274.5q0 -345 -151.5 -524t-421.5 -179q-267 0 -415 179t-148 524zM279 684q0 -565 409 -565q86 0 154 31t111 83t71 124.5t39.5 149.5t11.5 165 q0 64 -7.5 126t-24 128t-46.5 121t-71.5 99.5t-103 69.5t-136.5 25q-108 0 -189.5 -47t-127.5 -128t-68 -176.5t-22 -205.5zM389 1599q0 45 30 75t77 30q44 0 74 -30.5t30 -74.5q0 -47 -30.5 -76.5t-75.5 -29.5q-47 0 -76 29.5t-29 76.5zM774 1599q0 45 30 75t77 30 q44 0 74 -30.5t30 -74.5q0 -47 -30.5 -76.5t-75.5 -29.5q-47 0 -76 29.5t-29 76.5z"/>
<glyph unicode="×" d="M197 399l252 252l-252 252l102 103l250 -252l252 250l96 -97l-250 -252l252 -249l-104 -103l-250 252l-252 -252z"/>
<glyph unicode="Ø" horiz-adv-x="1353" d="M111 678q0 128 23.5 235t65 183t96.5 133t121 90.5t134 50t141 16.5q131 0 234 -47l82 170l125 -57l-93 -188q203 -180 203 -586q0 -345 -151.5 -524t-419.5 -179q-141 0 -240 45l-100 -206l-121 59l106 219q-206 178 -206 586zM276 684q0 -293 115 -440l467 958 q-71 45 -172 45q-108 0 -190 -48t-128.5 -130t-69 -178.5t-22.5 -206.5zM498 154q77 -41 190 -41q86 0 153.5 31.5t111 84.5t72 126t40.5 151t12 166q0 277 -114 434z"/>
<glyph unicode="Ù" horiz-adv-x="1382" d="M98 1233v129h381v-121l-61 -6q-30 -5 -40.5 -17.5t-10.5 -46.5v-743q0 -87 24 -148.5t69.5 -96.5t103.5 -50.5t134 -15.5q146 0 232 76t86 225v809l-107 6v129h381v-121l-57 -6q-31 -5 -43 -17.5t-12 -46.5v-788q0 -193 -134.5 -300.5t-355.5 -107.5q-243 0 -363 106 t-120 339v807zM446 1731q0 35 33 55l66 51l313 -303l-49 -68l-301 181q-32 19 -47 37.5t-15 46.5z"/>
<glyph unicode="Ú" horiz-adv-x="1382" d="M98 1233v129h381v-121l-61 -6q-30 -5 -40.5 -17.5t-10.5 -46.5v-743q0 -87 24 -148.5t69.5 -96.5t103.5 -50.5t134 -15.5q146 0 232 76t86 225v809l-107 6v129h381v-121l-57 -6q-31 -5 -43 -17.5t-12 -46.5v-788q0 -193 -134.5 -300.5t-355.5 -107.5q-243 0 -363 106 t-120 339v807zM553 1534l311 303l70 -55q31 -22 31 -53q0 -27 -17 -45.5t-51 -38.5l-295 -179z"/>
<glyph unicode="Û" horiz-adv-x="1382" d="M98 1233v129h381v-121l-61 -6q-30 -5 -40.5 -17.5t-10.5 -46.5v-743q0 -87 24 -148.5t69.5 -96.5t103.5 -50.5t134 -15.5q146 0 232 76t86 225v809l-107 6v129h381v-121l-57 -6q-31 -5 -43 -17.5t-12 -46.5v-788q0 -193 -134.5 -300.5t-355.5 -107.5q-243 0 -363 106 t-120 339v807zM389 1520l215 247q42 50 90 50q52 0 90 -45l222 -252l-62 -54l-250 181l-245 -181z"/>
<glyph unicode="Ü" horiz-adv-x="1382" d="M98 1233v129h381v-121l-61 -6q-30 -5 -40.5 -17.5t-10.5 -46.5v-743q0 -87 24 -148.5t69.5 -96.5t103.5 -50.5t134 -15.5q146 0 232 76t86 225v809l-107 6v129h381v-121l-57 -6q-31 -5 -43 -17.5t-12 -46.5v-788q0 -193 -134.5 -300.5t-355.5 -107.5q-243 0 -363 106 t-120 339v807zM389 1599q0 45 30 75t77 30q44 0 74 -30.5t30 -74.5q0 -47 -30.5 -76.5t-75.5 -29.5q-47 0 -76 29.5t-29 76.5zM774 1599q0 45 30 75t77 30q44 0 74 -30.5t30 -74.5q0 -47 -30.5 -76.5t-75.5 -29.5q-47 0 -76 29.5t-29 76.5z"/>
<glyph unicode="Ý" horiz-adv-x="1107" d="M20 1233v129h386v-121l-62 -6q-74 -6 -33 -80l244 -479h2l277 551l-103 6v129h356v-121l-45 -4q-27 -4 -39.5 -17t-33.5 -53l-340 -649v-383l127 -6v-129h-422v121l76 6q34 5 45.5 16t11.5 45v330l-377 711zM403 1534l312 303l69 -55q31 -22 31 -53q0 -27 -16.5 -45.5 t-50.5 -38.5l-295 -179z"/>
<glyph unicode="Þ" horiz-adv-x="1171" d="M102 0v121l62 8q31 5 41 16t10 50v1032l-106 6v129h479v-121l-160 -8q-28 -1 -38.5 -13.5t-10.5 -39.5v-35h280q220 0 340.5 -103.5t120.5 -302.5q0 -149 -65.5 -252.5t-178 -152.5t-262.5 -49h-235v-150l209 -8v-127h-486zM379 416h205q368 0 368 299q0 57 -10 101.5 t-27.5 75.5t-47.5 53t-61.5 35t-79 20.5t-92 9.5t-106.5 2h-149v-596z"/>
<glyph unicode="ß" horiz-adv-x="1193" d="M92 0v115l58 8q30 5 39.5 16.5t9.5 48.5v871q0 71 13.5 129t45.5 109t83 86t129 55t179 20q206 0 302 -77.5t96 -196.5q0 -56 -29 -108.5t-70.5 -92t-83.5 -75.5t-71 -73t-29 -71q0 -31 20.5 -59.5t53 -52t71.5 -48.5t78.5 -55.5t72 -65.5t53 -86.5t20.5 -111.5 q0 -152 -98 -233t-244 -81q-80 0 -169 22.5t-143 59.5v230l150 14v-127q0 -25 7.5 -38t29.5 -23q33 -15 118 -15q86 0 138.5 44t52.5 132q0 49 -20 88.5t-52 66.5t-70.5 51.5t-77.5 48.5t-71 51t-52 66t-20 87q0 57 29 109t70 91.5t82.5 76.5t70.5 80.5t29 87.5 q0 75 -67.5 117t-194.5 42q-273 0 -273 -260v-1073h-266z"/>
<glyph unicode="à" horiz-adv-x="1130" d="M88 465q0 277 130.5 429.5t387.5 152.5q60 0 152.5 -16.5t183.5 -49.5v-807q0 -29 9 -41.5t34 -13.5l70 -4v-115h-252v121l-6 2q-41 -65 -115.5 -108.5t-183.5 -43.5q-106 0 -185.5 35.5t-128 101.5t-72.5 155t-24 202zM256 459q0 -54 6.5 -101.5t24.5 -95t46 -81 t75 -54.5t108 -21q123 0 195.5 72t72.5 172v524q-85 35 -204 35q-72 0 -128 -23.5t-92.5 -64t-60 -98.5t-33.5 -122.5t-10 -141.5zM362 1483q0 22 13 36t41 27l76 35l225 -373l-64 -51l-247 246q-44 44 -44 80z"/>
<glyph unicode="á" horiz-adv-x="1130" d="M88 465q0 277 130.5 429.5t387.5 152.5q60 0 152.5 -16.5t183.5 -49.5v-807q0 -29 9 -41.5t34 -13.5l70 -4v-115h-252v121l-6 2q-41 -65 -115.5 -108.5t-183.5 -43.5q-106 0 -185.5 35.5t-128 101.5t-72.5 155t-24 202zM256 459q0 -54 6.5 -101.5t24.5 -95t46 -81 t75 -54.5t108 -21q123 0 195.5 72t72.5 172v524q-85 35 -204 35q-72 0 -128 -23.5t-92.5 -64t-60 -98.5t-33.5 -122.5t-10 -141.5zM438 1208l226 371l81 -35q46 -18 46 -57q0 -25 -9.5 -42.5t-33.5 -41.5l-246 -246z"/>
<glyph unicode="â" horiz-adv-x="1130" d="M88 465q0 277 130.5 429.5t387.5 152.5q60 0 152.5 -16.5t183.5 -49.5v-807q0 -29 9 -41.5t34 -13.5l70 -4v-115h-252v121l-6 2q-41 -65 -115.5 -108.5t-183.5 -43.5q-106 0 -185.5 35.5t-128 101.5t-72.5 155t-24 202zM256 459q0 -54 6.5 -101.5t24.5 -95t46 -81 t75 -54.5t108 -21q123 0 195.5 72t72.5 172v524q-85 35 -204 35q-72 0 -128 -23.5t-92.5 -64t-60 -98.5t-33.5 -122.5t-10 -141.5zM283 1206l198 275q23 30 43.5 44.5t48.5 14.5q58 0 97 -57l196 -277l-63 -51l-230 209l-227 -207z"/>
<glyph unicode="ã" horiz-adv-x="1130" d="M88 465q0 277 130.5 429.5t387.5 152.5q60 0 152.5 -16.5t183.5 -49.5v-807q0 -29 9 -41.5t34 -13.5l70 -4v-115h-252v121l-6 2q-41 -65 -115.5 -108.5t-183.5 -43.5q-106 0 -185.5 35.5t-128 101.5t-72.5 155t-24 202zM256 459q0 -54 6.5 -101.5t24.5 -95t46 -81 t75 -54.5t108 -21q123 0 195.5 72t72.5 172v524q-85 35 -204 35q-72 0 -128 -23.5t-92.5 -64t-60 -98.5t-33.5 -122.5t-10 -141.5zM270 1272q74 145 189 145q52 0 144.5 -28.5t125.5 -28.5q64 0 105 65l88 -45q-53 -151 -187 -151q-48 0 -142 28.5t-130 28.5 q-33 0 -55.5 -13t-53.5 -48z"/>
<glyph unicode="ä" horiz-adv-x="1130" d="M88 465q0 277 130.5 429.5t387.5 152.5q60 0 152.5 -16.5t183.5 -49.5v-807q0 -29 9 -41.5t34 -13.5l70 -4v-115h-252v121l-6 2q-41 -65 -115.5 -108.5t-183.5 -43.5q-106 0 -185.5 35.5t-128 101.5t-72.5 155t-24 202zM256 459q0 -54 6.5 -101.5t24.5 -95t46 -81 t75 -54.5t108 -21q123 0 195.5 72t72.5 172v524q-85 35 -204 35q-72 0 -128 -23.5t-92.5 -64t-60 -98.5t-33.5 -122.5t-10 -141.5zM297 1309q0 47 29.5 76.5t76.5 29.5q45 0 75 -29.5t30 -76.5t-31 -77t-76 -30q-47 0 -75.5 29.5t-28.5 77.5zM666 1309q0 47 29.5 76.5 t76.5 29.5q45 0 75 -29.5t30 -76.5t-31 -77t-76 -30q-47 0 -75.5 29.5t-28.5 77.5z"/>
<glyph unicode="å" horiz-adv-x="1130" d="M88 465q0 277 130.5 429.5t387.5 152.5q60 0 152.5 -16.5t183.5 -49.5v-807q0 -29 9 -41.5t34 -13.5l70 -4v-115h-252v121l-6 2q-41 -65 -115.5 -108.5t-183.5 -43.5q-106 0 -185.5 35.5t-128 101.5t-72.5 155t-24 202zM256 459q0 -54 6.5 -101.5t24.5 -95t46 -81 t75 -54.5t108 -21q123 0 195.5 72t72.5 172v524q-85 35 -204 35q-72 0 -128 -23.5t-92.5 -64t-60 -98.5t-33.5 -122.5t-10 -141.5zM393 1335q0 89 54 144t145 55q92 0 145.5 -53t53.5 -135q0 -93 -55 -150t-148 -57q-92 0 -143.5 54.5t-51.5 141.5zM506 1335q0 -46 21.5 -73 t64.5 -27t64.5 27.5t21.5 72.5q0 103 -86 103t-86 -103z"/>
<glyph unicode="æ" horiz-adv-x="1542" d="M88 475q0 272 131.5 422t374.5 150q65 0 144.5 -22t148.5 -58q118 80 262 80q147 0 229 -70t82 -197q0 -93 -34 -160.5t-93.5 -103.5t-139 -57t-170.5 -22.5t-189 1.5q5 -150 80 -239.5t223 -89.5q150 0 252 81l59 -118q-46 -40 -138 -70.5t-196 -30.5q-184 0 -293 109 q-61 -47 -141.5 -79t-161.5 -32q-112 0 -197 40t-134.5 111t-74 160t-24.5 195zM256 492q0 -82 14.5 -149t45 -121.5t84.5 -85t128 -30.5q124 0 215 78q-69 119 -69 310q0 217 112 364q-104 51 -219 51q-106 0 -178 -59t-102.5 -150t-30.5 -208zM838 567q92 -9 176 -3.5 t149 23.5t103.5 65.5t38.5 121.5q0 70 -43.5 107t-118.5 37q-78 0 -138.5 -35t-94.5 -90t-52 -112.5t-20 -113.5z"/>
<glyph unicode="ç" horiz-adv-x="952" d="M90 510q0 120 29 215t75.5 154t109 98t125 54.5t128.5 15.5q181 0 297 -84v-261l-145 -10v137q0 29 -8.5 42.5t-34.5 23.5q-38 12 -97 12q-146 0 -227.5 -95t-81.5 -296q0 -121 28 -208t96.5 -141t174.5 -54q137 0 254 94l68 -115q-56 -50 -140 -85t-186 -36l-25 -80 q78 -5 125 -42t47 -109q0 -88 -61.5 -133t-155.5 -45q-92 0 -168 37l27 86q84 -27 135 -27q105 0 105 78q0 46 -44 64t-139 18l56 159q-180 26 -273.5 162t-93.5 371z"/>
<glyph unicode="è" horiz-adv-x="964" d="M90 475q0 166 55.5 294.5t165 203t258.5 74.5q151 0 232.5 -69.5t81.5 -201.5q0 -86 -31 -150.5t-87.5 -102.5t-135 -61t-172.5 -26t-201 2q2 -68 19.5 -124.5t51.5 -104t92 -74t136 -26.5q139 0 256 81l57 -118q-47 -37 -134 -69t-189 -32q-122 0 -212 38.5t-142 109 t-76.5 159t-24.5 197.5zM260 567q95 -11 180 -5.5t148.5 24.5t101 66t37.5 118q0 148 -162 148q-76 0 -134.5 -33t-92.5 -87.5t-52.5 -111.5t-25.5 -119zM319 1483q0 22 13 36t41 27l76 35l225 -373l-64 -51l-248 246q-43 43 -43 80z"/>
<glyph unicode="é" horiz-adv-x="964" d="M90 475q0 166 55.5 294.5t165 203t258.5 74.5q151 0 232.5 -69.5t81.5 -201.5q0 -86 -31 -150.5t-87.5 -102.5t-135 -61t-172.5 -26t-201 2q2 -68 19.5 -124.5t51.5 -104t92 -74t136 -26.5q139 0 256 81l57 -118q-47 -37 -134 -69t-189 -32q-122 0 -212 38.5t-142 109 t-76.5 159t-24.5 197.5zM260 567q95 -11 180 -5.5t148.5 24.5t101 66t37.5 118q0 148 -162 148q-76 0 -134.5 -33t-92.5 -87.5t-52.5 -111.5t-25.5 -119zM401 1208l226 371l82 -35q45 -17 45 -57q0 -25 -9.5 -42.5t-33.5 -41.5l-246 -246z"/>
<glyph unicode="ê" horiz-adv-x="964" d="M90 475q0 166 55.5 294.5t165 203t258.5 74.5q151 0 232.5 -69.5t81.5 -201.5q0 -86 -31 -150.5t-87.5 -102.5t-135 -61t-172.5 -26t-201 2q2 -68 19.5 -124.5t51.5 -104t92 -74t136 -26.5q139 0 256 81l57 -118q-47 -37 -134 -69t-189 -32q-122 0 -212 38.5t-142 109 t-76.5 159t-24.5 197.5zM246 1206l198 275q23 30 44 44.5t49 14.5q57 0 96 -57l196 -277l-63 -51l-229 209l-228 -207zM260 567q95 -11 180 -5.5t148.5 24.5t101 66t37.5 118q0 148 -162 148q-76 0 -134.5 -33t-92.5 -87.5t-52.5 -111.5t-25.5 -119z"/>
<glyph unicode="ë" horiz-adv-x="964" d="M90 475q0 166 55.5 294.5t165 203t258.5 74.5q151 0 232.5 -69.5t81.5 -201.5q0 -86 -31 -150.5t-87.5 -102.5t-135 -61t-172.5 -26t-201 2q2 -68 19.5 -124.5t51.5 -104t92 -74t136 -26.5q139 0 256 81l57 -118q-47 -37 -134 -69t-189 -32q-122 0 -212 38.5t-142 109 t-76.5 159t-24.5 197.5zM244 1309q0 47 29.5 76.5t76.5 29.5q45 0 75 -29.5t30 -76.5t-31 -77t-76 -30q-47 0 -75.5 29.5t-28.5 77.5zM260 567q95 -11 180 -5.5t148.5 24.5t101 66t37.5 118q0 148 -162 148q-76 0 -134.5 -33t-92.5 -87.5t-52.5 -111.5t-25.5 -119zM612 1309 q0 47 30 76.5t77 29.5q45 0 74.5 -29.5t29.5 -76.5t-30.5 -77t-75.5 -30q-47 0 -76 30t-29 77z"/>
<glyph unicode="ì" horiz-adv-x="555" d="M-2 1483q0 22 12.5 36t40.5 27l76 35l225 -373l-63 -51l-248 246q-43 43 -43 80zM92 897v121h273v-889l108 -6v-123h-375v115l60 6q29 5 38 17t9 50v646q0 34 -10.5 45.5t-40.5 13.5z"/>
<glyph unicode="í" horiz-adv-x="555" d="M92 897v121h273v-889l108 -6v-123h-375v115l60 6q29 5 38 17t9 50v646q0 34 -10.5 45.5t-40.5 13.5zM135 1208l225 371l82 -35q45 -17 45 -57q0 -25 -9.5 -42.5t-33.5 -41.5l-245 -246z"/>
<glyph unicode="î" horiz-adv-x="555" d="M-39 1206l199 275q23 30 43.5 44.5t48.5 14.5q57 0 96 -57l197 -277l-64 -51l-229 209l-227 -207zM92 897v121h273v-889l108 -6v-123h-375v115l60 6q29 5 38 17t9 50v646q0 34 -10.5 45.5t-40.5 13.5z"/>
<glyph unicode="ï" horiz-adv-x="555" d="M-37 1309q0 47 30 76.5t77 29.5q45 0 74.5 -29.5t29.5 -76.5t-30.5 -77t-75.5 -30q-47 0 -76 30t-29 77zM92 897v121h273v-889l108 -6v-123h-375v115l60 6q29 5 38 17t9 50v646q0 34 -10.5 45.5t-40.5 13.5zM332 1309q0 47 29.5 76.5t76.5 29.5q45 0 75 -29.5t30 -76.5 t-31 -77t-76 -30q-47 0 -75.5 29.5t-28.5 77.5z"/>
<glyph unicode="ð" horiz-adv-x="1038" d="M82 426q0 208 115.5 345.5t302.5 137.5q152 0 258 -73q-21 98 -55 169.5t-99 143.5l-213 -145l-63 92l190 131q-111 79 -258 108l31 123q207 -37 346 -151l215 147l63 -92l-196 -133q110 -125 163.5 -297t53.5 -363q0 -98 -14.5 -184t-48 -163t-83 -132t-124 -87 t-166.5 -32q-206 0 -312 124.5t-106 330.5zM242 422q0 -151 69 -236.5t197 -85.5q131 0 205.5 121.5t74.5 337.5q0 57 -6 115q-55 48 -127.5 77t-140.5 29q-74 0 -128 -27.5t-84.5 -77.5t-45 -112.5t-14.5 -140.5z"/>
<glyph unicode="ñ" horiz-adv-x="1175" d="M82 897v121h264v-148q102 177 324 177q325 0 325 -353v-565l109 -6v-123h-375v115l59 8q30 5 39 15t9 42v465q0 129 -42.5 192.5t-162.5 63.5q-119 0 -198 -82t-79 -186v-504l109 -6v-123h-375v115l57 6q30 5 40 16t10 41v656q0 34 -11 45.5t-41 13.5zM272 1272 q74 145 189 145q52 0 144.5 -28.5t125.5 -28.5q64 0 105 65l88 -45q-53 -151 -187 -151q-48 0 -142 28.5t-130 28.5q-33 0 -55.5 -13t-53.5 -48z"/>
<glyph unicode="ò" horiz-adv-x="1064" d="M90 516q0 122 28.5 217.5t74 153t107.5 95t122.5 51.5t126.5 14q35 0 68 -3.5t77.5 -16.5t81 -34t74.5 -60t64 -90.5t42.5 -129.5t16.5 -174q0 -146 -34.5 -256.5t-97 -177.5t-145 -100.5t-182.5 -33.5q-200 0 -312 137.5t-112 407.5zM260 537q0 -66 5 -121t22.5 -115.5 t45.5 -102t78 -69t117 -27.5q71 0 124.5 32.5t85.5 89t47.5 127t15.5 153.5q0 409 -264 409q-141 0 -209 -103t-68 -273zM332 1483q0 22 12.5 36t40.5 27l76 35l225 -373l-63 -51l-248 246q-43 43 -43 80z"/>
<glyph unicode="ó" horiz-adv-x="1064" d="M90 516q0 122 28.5 217.5t74 153t107.5 95t122.5 51.5t126.5 14q35 0 68 -3.5t77.5 -16.5t81 -34t74.5 -60t64 -90.5t42.5 -129.5t16.5 -174q0 -146 -34.5 -256.5t-97 -177.5t-145 -100.5t-182.5 -33.5q-200 0 -312 137.5t-112 407.5zM260 537q0 -66 5 -121t22.5 -115.5 t45.5 -102t78 -69t117 -27.5q71 0 124.5 32.5t85.5 89t47.5 127t15.5 153.5q0 409 -264 409q-141 0 -209 -103t-68 -273zM401 1208l226 371l82 -35q45 -17 45 -57q0 -25 -9.5 -42.5t-33.5 -41.5l-246 -246z"/>
<glyph unicode="ô" horiz-adv-x="1064" d="M90 516q0 122 28.5 217.5t74 153t107.5 95t122.5 51.5t126.5 14q35 0 68 -3.5t77.5 -16.5t81 -34t74.5 -60t64 -90.5t42.5 -129.5t16.5 -174q0 -146 -34.5 -256.5t-97 -177.5t-145 -100.5t-182.5 -33.5q-200 0 -312 137.5t-112 407.5zM246 1206l198 275q23 30 44 44.5 t49 14.5q57 0 96 -57l196 -277l-63 -51l-229 209l-228 -207zM260 537q0 -66 5 -121t22.5 -115.5t45.5 -102t78 -69t117 -27.5q71 0 124.5 32.5t85.5 89t47.5 127t15.5 153.5q0 409 -264 409q-141 0 -209 -103t-68 -273z"/>
<glyph unicode="õ" horiz-adv-x="1064" d="M90 516q0 122 28.5 217.5t74 153t107.5 95t122.5 51.5t126.5 14q35 0 68 -3.5t77.5 -16.5t81 -34t74.5 -60t64 -90.5t42.5 -129.5t16.5 -174q0 -146 -34.5 -256.5t-97 -177.5t-145 -100.5t-182.5 -33.5q-200 0 -312 137.5t-112 407.5zM207 1272q74 145 188 145 q52 0 145 -28.5t126 -28.5q63 0 104 65l88 -45q-53 -151 -186 -151q-48 0 -142.5 28.5t-130.5 28.5q-33 0 -54.5 -13t-53.5 -48zM260 537q0 -66 5 -121t22.5 -115.5t45.5 -102t78 -69t117 -27.5q71 0 124.5 32.5t85.5 89t47.5 127t15.5 153.5q0 409 -264 409 q-141 0 -209 -103t-68 -273z"/>
<glyph unicode="ö" horiz-adv-x="1064" d="M90 516q0 122 28.5 217.5t74 153t107.5 95t122.5 51.5t126.5 14q35 0 68 -3.5t77.5 -16.5t81 -34t74.5 -60t64 -90.5t42.5 -129.5t16.5 -174q0 -146 -34.5 -256.5t-97 -177.5t-145 -100.5t-182.5 -33.5q-200 0 -312 137.5t-112 407.5zM250 1309q0 47 29.5 76.5t76.5 29.5 q45 0 75 -29.5t30 -76.5t-31 -77t-76 -30q-47 0 -75.5 29.5t-28.5 77.5zM260 537q0 -66 5 -121t22.5 -115.5t45.5 -102t78 -69t117 -27.5q71 0 124.5 32.5t85.5 89t47.5 127t15.5 153.5q0 409 -264 409q-141 0 -209 -103t-68 -273zM618 1309q0 47 30 76.5t77 29.5 q45 0 74.5 -29.5t29.5 -76.5t-30.5 -77t-75.5 -30q-47 0 -76 30t-29 77z"/>
<glyph unicode="÷" d="M133 586v133h830v-133h-830zM436 285q0 50 32 83t81 33q54 0 86.5 -31.5t32.5 -82.5q0 -54 -32 -88.5t-83 -34.5q-55 0 -86 32.5t-31 88.5zM436 1024q0 51 32 85t81 34q54 0 86.5 -31.5t32.5 -85.5t-32 -87.5t-83 -33.5q-55 0 -86 32t-31 87z"/>
<glyph unicode="ø" horiz-adv-x="1064" d="M94 516q0 122 28.5 217.5t73 153t106 95t121.5 51.5t126 14q97 0 170 -29l84 162l108 -56l-88 -168q146 -128 146 -417q0 -146 -34.5 -256.5t-97 -177.5t-144 -100.5t-179.5 -33.5t-182 35l-84 -164l-107 58l90 176q-137 140 -137 440zM254 537q0 -209 55 -312l346 670 q-52 27 -118 27q-142 0 -212.5 -105t-70.5 -280zM395 129q53 -35 133 -35q94 0 158.5 57t92.5 147t28 206q0 194 -62 301z"/>
<glyph unicode="ù" horiz-adv-x="1173" d="M68 897v121h272v-651q0 -67 7.5 -110t28 -78.5t60.5 -51.5t103 -16q118 0 200 81t82 201v441q0 34 -10.5 45.5t-40.5 13.5l-61 4v121h270v-830q0 -38 9 -50t38 -17l59 -6v-115h-256v135h-4q-91 -164 -315 -164q-330 0 -330 351v512q0 34 -10.5 45.5t-40.5 13.5zM352 1483 q0 22 13 36t41 27l75 35l226 -373l-64 -51l-248 246q-43 43 -43 80z"/>
<glyph unicode="ú" horiz-adv-x="1173" d="M68 897v121h272v-651q0 -67 7.5 -110t28 -78.5t60.5 -51.5t103 -16q118 0 200 81t82 201v441q0 34 -10.5 45.5t-40.5 13.5l-61 4v121h270v-830q0 -38 9 -50t38 -17l59 -6v-115h-256v135h-4q-91 -164 -315 -164q-330 0 -330 351v512q0 34 -10.5 45.5t-40.5 13.5zM446 1208 l226 371l82 -35q45 -17 45 -57q0 -25 -9.5 -42.5t-33.5 -41.5l-246 -246z"/>
<glyph unicode="û" horiz-adv-x="1173" d="M68 897v121h272v-651q0 -67 7.5 -110t28 -78.5t60.5 -51.5t103 -16q118 0 200 81t82 201v441q0 34 -10.5 45.5t-40.5 13.5l-61 4v121h270v-830q0 -38 9 -50t38 -17l59 -6v-115h-256v135h-4q-91 -164 -315 -164q-330 0 -330 351v512q0 34 -10.5 45.5t-40.5 13.5zM283 1206 l198 275q23 30 43.5 44.5t48.5 14.5q58 0 97 -57l196 -277l-63 -51l-230 209l-227 -207z"/>
<glyph unicode="ü" horiz-adv-x="1173" d="M68 897v121h272v-651q0 -67 7.5 -110t28 -78.5t60.5 -51.5t103 -16q118 0 200 81t82 201v441q0 34 -10.5 45.5t-40.5 13.5l-61 4v121h270v-830q0 -38 9 -50t38 -17l59 -6v-115h-256v135h-4q-91 -164 -315 -164q-330 0 -330 351v512q0 34 -10.5 45.5t-40.5 13.5zM264 1309 q0 47 30 76.5t77 29.5q45 0 74.5 -29.5t29.5 -76.5t-30.5 -77t-75.5 -30q-47 0 -76 30t-29 77zM633 1309q0 47 29.5 76.5t76.5 29.5q45 0 75 -29.5t30 -76.5t-31 -77t-76 -30q-47 0 -75.5 29.5t-28.5 77.5z"/>
<glyph unicode="ý" horiz-adv-x="1019" d="M-43 -379l49 123q96 -47 180 -47q61 0 105.5 43.5t81.5 136.5l51 129l-318 885l-86 12v115h361v-119l-53 -4q-50 -6 -35 -55l215 -650h6l242 699l-101 8v121h344v-115l-45 -4q-28 -5 -39 -13.5t-22 -41.5l-318 -858q-24 -65 -37.5 -101t-37 -88t-43 -80.5t-49 -62.5 t-60.5 -51t-73 -29t-91 -12q-61 0 -125 17.5t-102 41.5zM459 1208l225 371l82 -35q45 -17 45 -57q0 -25 -9.5 -42.5t-33.5 -41.5l-246 -246z"/>
<glyph unicode="þ" d="M51 1339v121h271v-590q87 177 309 177q379 0 379 -527q0 -264 -114 -406.5t-310 -142.5q-152 0 -262 78v-342l149 -8v-123h-416v115l56 8q31 5 41 16.5t10 48.5v1512q0 34 -10.5 45.5t-40.5 13.5zM322 203q45 -39 114.5 -64.5t136.5 -25.5q93 0 154.5 55.5t87 142.5 t25.5 203q0 71 -6 126t-22 106t-42.5 84.5t-69 53t-100.5 19.5q-115 0 -196.5 -78t-81.5 -172v-450z"/>
<glyph unicode="ÿ" horiz-adv-x="1019" d="M-43 -379l49 123q96 -47 180 -47q61 0 105.5 43.5t81.5 136.5l51 129l-318 885l-86 12v115h361v-119l-53 -4q-50 -6 -35 -55l215 -650h6l242 699l-101 8v121h344v-115l-45 -4q-28 -5 -39 -13.5t-22 -41.5l-318 -858q-24 -65 -37.5 -101t-37 -88t-43 -80.5t-49 -62.5 t-60.5 -51t-73 -29t-91 -12q-61 0 -125 17.5t-102 41.5zM240 1309q0 47 29.5 76.5t76.5 29.5q45 0 75 -29.5t30 -76.5t-31 -77t-76 -30q-47 0 -75.5 29.5t-28.5 77.5zM608 1309q0 47 30 76.5t77 29.5q45 0 74.5 -29.5t29.5 -76.5t-30.5 -77t-75.5 -30q-47 0 -76 30t-29 77z "/>
<glyph unicode="Œ" horiz-adv-x="1830" d="M111 678q0 128 23.5 235t65 183t96.5 133t121 90.5t134 50t141 16.5q100 0 170 -24h862v-283l-147 -14v104q0 29 -11 41.5t-44 12.5h-398v-459h516v-139h-516v-486h420q30 0 38.5 12t8.5 44v112l148 -14v-293h-899q-73 -25 -168 -25q-267 0 -414 179t-147 524zM276 684 q0 -88 10 -164t38 -153t72.5 -131.5t119 -88.5t172.5 -34q79 0 160.5 19t109.5 44v1002q-90 69 -249 69q-95 0 -170.5 -32t-124 -85.5t-80.5 -127.5t-45 -152t-13 -166z"/>
<glyph unicode="œ" horiz-adv-x="1660" d="M90 516q0 122 28.5 217.5t74 153t107.5 95t122.5 51.5t126.5 14q253 0 348 -213q117 213 369 213q150 0 231.5 -69.5t81.5 -201.5q0 -86 -31 -150.5t-87.5 -102.5t-135 -61t-172.5 -26t-201 2q2 -68 19.5 -124.5t51.5 -104t92 -74t136 -26.5q139 0 256 81l58 -118 q-47 -37 -134.5 -69t-189.5 -32q-276 0 -369 201q-107 -201 -358 -201q-200 0 -312 137.5t-112 407.5zM260 537q0 -66 5 -121t22.5 -115.5t45.5 -102t78 -69t117 -27.5q71 0 124.5 32.5t85.5 89t47.5 127t15.5 153.5q0 409 -264 409q-141 0 -209 -103t-68 -273zM956 567 q95 -11 180 -5.5t148.5 24.5t101 66t37.5 118q0 148 -161 148q-76 0 -134.5 -33t-93 -87.5t-53 -111.5t-25.5 -119z"/>
<glyph unicode="Ÿ" horiz-adv-x="1107" d="M20 1233v129h386v-121l-62 -6q-74 -6 -33 -80l244 -479h2l277 551l-103 6v129h356v-121l-45 -4q-27 -4 -39.5 -17t-33.5 -53l-340 -649v-383l127 -6v-129h-422v121l76 6q34 5 45.5 16t11.5 45v330l-377 711zM244 1599q0 45 29.5 75t76.5 30q44 0 74.5 -30.5t30.5 -74.5 q0 -46 -31 -76t-76 -30q-47 0 -75.5 29.5t-28.5 76.5zM629 1599q0 45 29.5 75t76.5 30q44 0 74.5 -30.5t30.5 -74.5q0 -46 -31 -76t-76 -30q-47 0 -75.5 29.5t-28.5 76.5z"/>
<glyph unicode="ˆ" horiz-adv-x="1024" d="M217 1206l199 275q23 30 43.5 44.5t48.5 14.5q57 0 96 -57l197 -277l-64 -51l-229 209l-227 -207z"/>
<glyph unicode="˜" horiz-adv-x="1024" d="M190 1272q74 145 189 145q52 0 144.5 -28.5t125.5 -28.5q64 0 105 65l88 -45q-53 -151 -187 -151q-48 0 -142 28.5t-130 28.5q-33 0 -55.5 -13t-53.5 -48z"/>
<glyph unicode=" " horiz-adv-x="918"/>
<glyph unicode=" " horiz-adv-x="1837"/>
<glyph unicode=" " horiz-adv-x="918"/>
<glyph unicode=" " horiz-adv-x="1837"/>
<glyph unicode=" " horiz-adv-x="612"/>
<glyph unicode=" " horiz-adv-x="459"/>
<glyph unicode=" " horiz-adv-x="306"/>
<glyph unicode=" " horiz-adv-x="306"/>
<glyph unicode=" " horiz-adv-x="229"/>
<glyph unicode=" " horiz-adv-x="367"/>
<glyph unicode=" " horiz-adv-x="102"/>
<glyph unicode="‐" horiz-adv-x="649" d="M51 530v136h537v-136h-537z"/>
<glyph unicode="‑" horiz-adv-x="649" d="M51 530v136h537v-136h-537z"/>
<glyph unicode="‒" horiz-adv-x="649" d="M51 530v136h537v-136h-537z"/>
<glyph unicode="–" horiz-adv-x="1024" d="M0 539v127h1024v-127h-1024z"/>
<glyph unicode="—" horiz-adv-x="2048" d="M0 539v127h2048v-127h-2048z"/>
<glyph unicode="‘" horiz-adv-x="397" d="M91.5 1092q-36.5 64 14.5 170l115 239l107 -35l-68 -229q-10 -31 1 -42t42 -11h53l-22 -144q-54 -12 -96 -12q-110 0 -146.5 64z"/>
<glyph unicode="’" horiz-adv-x="397" d="M61 1309l23 143q52 12 96 12q110 0 146 -65t-15 -168l-114 -240l-107 35l68 229q10 31 -1 42.5t-42 11.5h-54z"/>
<glyph unicode="‚" horiz-adv-x="397" d="M59 59l23 144q44 9 78 12q122 7 163 -60t-14 -173l-114 -240l-107 35l68 229q10 31 -1 42t-42 11h-54z"/>
<glyph unicode="“" horiz-adv-x="757" d="M91.5 1092q-36.5 64 14.5 170l115 239l107 -35l-68 -229q-10 -31 1 -42t42 -11h53l-22 -144q-54 -12 -96 -12q-110 0 -146.5 64zM452 1092q-36 64 15 170l115 239l106 -35l-67 -229q-10 -31 1 -42t42 -11h53l-23 -144q-54 -12 -96 -12q-110 0 -146 64z"/>
<glyph unicode="”" horiz-adv-x="757" d="M61 1309l23 143q52 12 96 12q110 0 146 -65t-15 -168l-114 -240l-107 35l68 229q10 31 -1 42.5t-42 11.5h-54zM422 1309l22 143q52 12 97 12q110 0 146 -65t-15 -168l-115 -240l-106 35l67 229q10 31 -1 42.5t-42 11.5h-53z"/>
<glyph unicode="„" horiz-adv-x="757" d="M59 59l23 144q44 9 78 12q122 7 163 -60t-14 -173l-114 -240l-107 35l68 229q10 31 -1 42t-42 11h-54zM420 59l22 144q44 9 78 12q122 7 163.5 -60t-13.5 -173l-115 -240l-106 35l67 229q10 31 -1 42t-42 11h-53z"/>
<glyph unicode="•" horiz-adv-x="1024" d="M297 627q0 103 60.5 166t154.5 63q95 0 155 -63t60 -166t-60 -166.5t-155 -63.5q-93 0 -154 63.5t-61 166.5z"/>
<glyph unicode="…" horiz-adv-x="1570" d="M143 92q0 54 32.5 86.5t84.5 32.5q56 0 88.5 -31.5t32.5 -85.5q0 -55 -31 -88t-84 -33q-59 0 -91 32t-32 87zM676 92q0 54 33 86.5t84 32.5q55 0 87.5 -31.5t32.5 -85.5q0 -55 -30.5 -88t-83.5 -33q-59 0 -91 32t-32 87zM1190 92q0 54 33 86.5t84 32.5q55 0 87.5 -31.5 t32.5 -85.5q0 -55 -30.5 -88t-83.5 -33q-59 0 -91 32t-32 87z"/>
<glyph unicode=" " horiz-adv-x="367"/>
<glyph unicode="‹" horiz-adv-x="630" d="M113 543q0 40 51 84q128 122 325 272l64 -63l-279 -295l263 -338l-68 -62q-90 81 -191 181.5t-137 152.5q-28 40 -28 68z"/>
<glyph unicode="›" horiz-adv-x="630" d="M78 836l63 63q202 -153 326 -272q51 -44 51 -84q0 -26 -29 -68q-36 -52 -137 -153t-190 -181l-68 62l262 338z"/>
<glyph unicode=" " horiz-adv-x="459"/>
<glyph unicode="€" horiz-adv-x="1091" d="M51 487v123h830v-123h-519q21 -178 103.5 -275t228.5 -97q67 0 119.5 24.5t118.5 79.5l78 -110q-146 -134 -332 -134q-194 0 -317 127t-164 385h-146zM51 702v123h146q25 245 159.5 383t348.5 138q154 0 301 -84v-226l-148 -14v96q0 31 -7.5 44.5t-35.5 23.5 q-40 18 -104 18q-71 0 -130 -25.5t-96.5 -65t-65 -92t-41 -100.5t-18.5 -96h521v-123h-830z"/>
<glyph unicode="™" horiz-adv-x="1415" d="M20 1188v174h574v-174l-94 -8v41q0 19 -4.5 25.5t-26.5 6.5h-100v-489l80 -4v-86h-287v84l41 6q41 7 41 47v442h-111q-18 -2 -18 -32v-41zM590 674v84l33 6q36 6 39 43l32 461l-53 4v90h190l177 -508l184 508h190v-86l-24 -2q-24 -6 -29 -13q-4 -7 -4 -24l31 -475l59 -2 v-86h-248v84l33 6q44 9 41 55l-18 350l-170 -454h-97l-161 448l-25 -399l68 -4v-86h-248z"/>
<glyph unicode="◼" horiz-adv-x="1013" d="M0 0v1014h1014v-1014h-1014z"/>
</font>
</defs>
</svg>
